<?xml version="1.0" encoding="UTF-8"?>
<!DOCTYPE svg PUBLIC "-//W3C//DTD SVG 1.1//EN" "http://www.w3.org/Graphics/SVG/1.1/DTD/svg11.dtd">
<svg xmlns="http://www.w3.org/2000/svg" version="1.1" width="580px" height="430px" style="shape-rendering:geometricPrecision; text-rendering:geometricPrecision; image-rendering:optimizeQuality; fill-rule:evenodd; clip-rule:evenodd" xmlns:xlink="http://www.w3.org/1999/xlink">
<g><path style="opacity:1" fill="#9f66df" d="M 234.5,12.5 C 235.833,12.5 237.167,12.5 238.5,12.5C 238.5,17.1667 238.5,21.8333 238.5,26.5C 234.5,29.8333 230.833,33.5 227.5,37.5C 227.5,36.8333 227.5,36.1667 227.5,35.5C 227.338,33.4727 227.505,31.4727 228,29.5C 228.71,30.9733 229.876,31.6399 231.5,31.5C 233.357,28.3513 235.024,25.018 236.5,21.5C 235.325,21.719 234.325,21.3857 233.5,20.5C 234.326,19.549 234.492,18.549 234,17.5C 232.933,18.1905 231.766,18.6905 230.5,19C 226.298,23.3702 221.964,27.5368 217.5,31.5C 217.5,30.8333 217.5,30.1667 217.5,29.5C 223.527,24.1396 229.194,18.4729 234.5,12.5 Z"/></g>
<g><path style="opacity:0.831" fill="#8b66ba" d="M 348.5,15.5 C 347.185,14.5244 345.852,13.5244 344.5,12.5C 343.34,16.4589 343.173,20.4589 344,24.5C 347.255,27.3791 349.755,30.7124 351.5,34.5C 348.889,31.6273 346.056,28.9606 343,26.5C 342.219,25.2713 341.719,23.938 341.5,22.5C 342.471,18.1683 342.638,13.8349 342,9.5C 342.333,9.16667 342.667,8.83333 343,8.5C 345.454,10.4412 347.287,12.7746 348.5,15.5 Z"/></g>
<g><path style="opacity:0.725" fill="#8c61b9" d="M 309.5,13.5 C 310.25,17.7754 308.917,21.1087 305.5,23.5C 306.321,19.8733 307.654,16.54 309.5,13.5 Z"/></g>
<g><path style="opacity:0.824" fill="#865fb9" d="M 311.5,37.5 C 314.161,28.8617 316.828,20.195 319.5,11.5C 316.5,11.5 313.5,11.5 310.5,11.5C 313.738,9.7727 317.405,8.7727 321.5,8.5C 321.833,9.16667 322.167,9.83333 322.5,10.5C 319.395,19.8354 315.728,28.8354 311.5,37.5 Z"/></g>
<g><path style="opacity:0.588" fill="#7854a3" d="M 238.5,26.5 C 238.5,21.8333 238.5,17.1667 238.5,12.5C 237.167,12.5 235.833,12.5 234.5,12.5C 235.775,9.9494 237.609,8.9494 240,9.5C 239.499,14.0182 239.665,18.5182 240.5,23C 240.192,24.4595 239.525,25.6261 238.5,26.5 Z"/></g>
<g><path style="opacity:0.996" fill="#9161cb" d="M 348.5,15.5 C 358.118,23.4849 367.118,32.1516 375.5,41.5C 371.43,38.9396 367.764,35.7729 364.5,32C 362.5,31.1667 360.5,30.3333 358.5,29.5C 355.513,24.5246 352.18,19.8579 348.5,15.5 Z"/></g>
<g><path style="opacity:0.424" fill="#684892" d="M 351.5,34.5 C 357.833,38.8333 363.167,44.1667 367.5,50.5C 361.833,45.5 356.5,40.1667 351.5,34.5 Z"/></g>
<g><path style="opacity:0.541" fill="#7c54af" d="M 305.5,23.5 C 304.617,31.5505 301.617,38.5505 296.5,44.5C 298.707,37.0943 301.707,30.0943 305.5,23.5 Z"/></g>
<g><path style="opacity:0.157" fill="#5f3481" d="M 217.5,29.5 C 217.5,30.1667 217.5,30.8333 217.5,31.5C 212.833,35.8333 208.167,40.1667 203.5,44.5C 207.439,38.8918 212.106,33.8918 217.5,29.5 Z"/></g>
<g><path style="opacity:1" fill="#b16af9" d="M 310.5,11.5 C 313.5,11.5 316.5,11.5 319.5,11.5C 316.828,20.195 314.161,28.8617 311.5,37.5C 310.504,37.4142 309.671,37.7476 309,38.5C 308.433,41.1677 307.933,43.8344 307.5,46.5C 305.552,48.3204 304.552,50.6538 304.5,53.5C 304.672,54.4916 304.338,55.1583 303.5,55.5C 302.5,55.5 301.5,55.5 300.5,55.5C 299.751,60.2455 298.751,64.9122 297.5,69.5C 297.672,70.4916 297.338,71.1583 296.5,71.5C 293.522,73.6749 292.022,76.6749 292,80.5C 291.311,81.3567 290.478,82.0233 289.5,82.5C 287.485,89.5294 285.485,96.5294 283.5,103.5C 280.387,105.64 279.054,108.64 279.5,112.5C 278.871,115.397 277.871,118.064 276.5,120.5C 274.926,120.937 273.759,121.937 273,123.5C 272.422,126.903 271.255,130.07 269.5,133C 265.833,133.937 262.499,133.437 259.5,131.5C 260.167,129.833 260.833,128.167 261.5,126.5C 263.093,125.652 264.26,124.319 265,122.5C 270.052,110.06 275.386,97.7269 281,85.5C 281.765,83.9343 281.598,82.6009 280.5,81.5C 282.181,78.0928 283.847,74.7594 285.5,71.5C 288.98,65.2538 292.314,58.9205 295.5,52.5C 296.48,49.9135 296.813,47.2469 296.5,44.5C 301.617,38.5505 304.617,31.5505 305.5,23.5C 308.917,21.1087 310.25,17.7754 309.5,13.5C 309.328,12.5084 309.662,11.8417 310.5,11.5 Z"/></g>
<g><path style="opacity:0.729" fill="#754fa5" d="M 311.5,37.5 C 310.537,40.7442 309.204,43.7442 307.5,46.5C 307.933,43.8344 308.433,41.1677 309,38.5C 309.671,37.7476 310.504,37.4142 311.5,37.5 Z"/></g>
<g><path style="opacity:1" fill="#8256b2" d="M 227.5,35.5 C 227.5,36.1667 227.5,36.8333 227.5,37.5C 222.833,42.8333 217.833,47.8333 212.5,52.5C 212.773,50.549 212.107,49.049 210.5,48C 212.112,47.2797 213.612,47.4464 215,48.5C 218.37,46.3257 220.203,43.3257 220.5,39.5C 221.833,39.5 223.167,39.5 224.5,39.5C 224.207,37.3109 223.707,35.3109 223,33.5C 224.33,34.5822 225.83,35.2488 227.5,35.5 Z"/></g>
<g><path style="opacity:0.169" fill="#6c4294" d="M 307.5,46.5 C 307.065,49.1573 306.065,51.4907 304.5,53.5C 304.552,50.6538 305.552,48.3204 307.5,46.5 Z"/></g>
<g><path style="opacity:0.361" fill="#734e9d" d="M 367.5,50.5 C 370.833,51.1667 372.833,53.1667 373.5,56.5C 371.167,54.8333 369.167,52.8333 367.5,50.5 Z"/></g>
<g><path style="opacity:0.996" fill="#8e5ec6" d="M 296.5,44.5 C 296.813,47.2469 296.48,49.9135 295.5,52.5C 292.314,58.9205 288.98,65.2538 285.5,71.5C 288.365,62.1122 292.032,53.1122 296.5,44.5 Z"/></g>
<g><path style="opacity:1" fill="#925ecd" d="M 212.5,52.5 C 205.833,58.5 199.5,64.8333 193.5,71.5C 193.703,69.9557 194.37,68.6223 195.5,67.5C 193.155,64.0165 193.655,63.3498 197,65.5C 199.034,64.0558 199.868,62.0558 199.5,59.5C 200.5,59.5 201.5,59.5 202.5,59.5C 202.281,58.325 202.614,57.325 203.5,56.5C 206.54,55.0925 209.54,53.7591 212.5,52.5 Z"/></g>
<g><path style="opacity:1" fill="#a568e7" d="M 389.5,55.5 C 391.167,56.8333 392.833,58.1667 394.5,59.5C 395.184,62.8506 397.184,64.8506 400.5,65.5C 402.31,68.1973 403.31,71.1973 403.5,74.5C 398.887,79.7792 393.887,84.7792 388.5,89.5C 386.181,85.1454 387.514,83.1454 392.5,83.5C 392.34,81.8008 392.506,80.1341 393,78.5C 394.356,79.3802 395.856,79.7135 397.5,79.5C 397.5,78.5 397.5,77.5 397.5,76.5C 398.833,76.5 400.167,76.5 401.5,76.5C 402.412,71.5945 400.579,68.2612 396,66.5C 395.544,67.7441 396.044,68.5774 397.5,69C 396.333,69.5 395.5,70.3333 395,71.5C 394.803,69.1391 393.636,67.4724 391.5,66.5C 390.687,62.8384 390.021,59.1718 389.5,55.5 Z"/></g>
<g><path style="opacity:0.62" fill="#865eb9" d="M 303.5,55.5 C 302.065,60.4898 300.065,65.1565 297.5,69.5C 298.751,64.9122 299.751,60.2455 300.5,55.5C 301.5,55.5 302.5,55.5 303.5,55.5 Z"/></g>
<g><path style="opacity:0.482" fill="#5b407d" d="M 394.5,59.5 C 396.833,61.1667 398.833,63.1667 400.5,65.5C 397.184,64.8506 395.184,62.8506 394.5,59.5 Z"/></g>
<g><path style="opacity:0.353" fill="#7353a1" d="M 375.5,57.5 C 380.093,61.0883 384.427,65.0883 388.5,69.5C 389.614,70.723 389.781,72.0563 389,73.5C 376.274,86.728 363.107,99.3947 349.5,111.5C 362.325,98.1746 375.325,85.008 388.5,72C 383.589,67.5938 379.255,62.7605 375.5,57.5 Z"/></g>
<g><path style="opacity:0.227" fill="#593d7c" d="M 189.5,57.5 C 185.721,62.4519 181.721,67.2852 177.5,72C 180.99,76.3232 184.657,80.4898 188.5,84.5C 183.384,81.2191 179.051,77.0524 175.5,72C 179.657,66.6759 184.324,61.8425 189.5,57.5 Z"/></g>
<g><path style="opacity:0.514" fill="#7b5ca9" d="M 400.5,65.5 C 403.842,67.1885 405.342,69.8552 405,73.5C 404.617,74.056 404.117,74.3893 403.5,74.5C 403.31,71.1973 402.31,68.1973 400.5,65.5 Z"/></g>
<g><path style="opacity:1" fill="#b06af8" d="M 227.5,35.5 C 225.83,35.2488 224.33,34.5822 223,33.5C 223.707,35.3109 224.207,37.3109 224.5,39.5C 223.167,39.5 221.833,39.5 220.5,39.5C 220.203,43.3257 218.37,46.3257 215,48.5C 213.612,47.4464 212.112,47.2797 210.5,48C 212.107,49.049 212.773,50.549 212.5,52.5C 209.54,53.7591 206.54,55.0925 203.5,56.5C 202.614,57.325 202.281,58.325 202.5,59.5C 201.5,59.5 200.5,59.5 199.5,59.5C 199.868,62.0558 199.034,64.0558 197,65.5C 193.655,63.3498 193.155,64.0165 195.5,67.5C 194.37,68.6223 193.703,69.9557 193.5,71.5C 192.957,71.56 192.624,71.8933 192.5,72.5C 194.949,74.7756 196.782,77.4423 198,80.5C 199.011,81.3366 200.178,81.67 201.5,81.5C 203.206,85.5349 206.206,88.2016 210.5,89.5C 211.167,92.8333 213.167,94.8333 216.5,95.5C 220.851,101.515 225.851,106.849 231.5,111.5C 234.06,113.273 236.393,115.273 238.5,117.5C 238.666,122.179 238.499,126.845 238,131.5C 236.195,129.518 234.028,128.184 231.5,127.5C 226.167,122.5 220.833,117.5 215.5,112.5C 213.237,108.897 210.57,105.564 207.5,102.5C 202.802,96.8012 197.469,91.8012 191.5,87.5C 190.167,86.8333 189.167,85.8333 188.5,84.5C 184.657,80.4898 180.99,76.3232 177.5,72C 181.721,67.2852 185.721,62.4519 189.5,57.5C 194.167,53.1667 198.833,48.8333 203.5,44.5C 208.167,40.1667 212.833,35.8333 217.5,31.5C 221.964,27.5368 226.298,23.3702 230.5,19C 231.766,18.6905 232.933,18.1905 234,17.5C 234.492,18.549 234.326,19.549 233.5,20.5C 234.325,21.3857 235.325,21.719 236.5,21.5C 235.024,25.018 233.357,28.3513 231.5,31.5C 229.876,31.6399 228.71,30.9733 228,29.5C 227.505,31.4727 227.338,33.4727 227.5,35.5 Z"/></g>
<g><path style="opacity:0.976" fill="#8454b7" d="M 193.5,71.5 C 196.57,74.5638 199.237,77.8971 201.5,81.5C 200.178,81.67 199.011,81.3366 198,80.5C 196.782,77.4423 194.949,74.7756 192.5,72.5C 192.624,71.8933 192.957,71.56 193.5,71.5 Z"/></g>
<g><path style="opacity:1" fill="#9663ce" d="M 296.5,71.5 C 292.158,82.2458 287.825,92.9125 283.5,103.5C 285.485,96.5294 287.485,89.5294 289.5,82.5C 290.478,82.0233 291.311,81.3567 292,80.5C 292.022,76.6749 293.522,73.6749 296.5,71.5 Z"/></g>
<g><path style="opacity:0.808" fill="#8f61c4" d="M 201.5,81.5 C 204.526,84.1954 207.526,86.8621 210.5,89.5C 206.206,88.2016 203.206,85.5349 201.5,81.5 Z"/></g>
<g><path style="opacity:0.659" fill="#835cb3" d="M 191.5,87.5 C 197.469,91.8012 202.802,96.8012 207.5,102.5C 206.833,102.5 206.167,102.5 205.5,102.5C 200.861,97.5261 196.195,92.5261 191.5,87.5 Z"/></g>
<g><path style="opacity:0.239" fill="#684c92" d="M 210.5,89.5 C 212.833,91.1667 214.833,93.1667 216.5,95.5C 213.167,94.8333 211.167,92.8333 210.5,89.5 Z"/></g>
<g><path style="opacity:0.263" fill="#684590" d="M 216.5,95.5 C 222.227,100.224 227.227,105.558 231.5,111.5C 225.851,106.849 220.851,101.515 216.5,95.5 Z"/></g>
<g><path style="opacity:0.992" fill="#9962d2" d="M 388.5,89.5 C 383.5,95.1667 378.167,100.5 372.5,105.5C 372.302,103.425 372.135,101.425 372,99.5C 372.333,99.1667 372.667,98.8333 373,98.5C 373.71,99.9733 374.876,100.64 376.5,100.5C 376.521,97.4652 377.854,95.1319 380.5,93.5C 383.2,92.1079 385.867,90.7745 388.5,89.5 Z"/></g>
<g><path style="opacity:0.129" fill="#452782" d="M 205.5,102.5 C 206.167,102.5 206.833,102.5 207.5,102.5C 210.57,105.564 213.237,108.897 215.5,112.5C 211.833,109.5 208.5,106.167 205.5,102.5 Z"/></g>
<g><path style="opacity:0.678" fill="#7350a5" d="M 283.5,103.5 C 282.958,106.912 281.625,109.912 279.5,112.5C 279.054,108.64 280.387,105.64 283.5,103.5 Z"/></g>
<g><path style="opacity:1" fill="#b069f7" d="M 348.5,15.5 C 352.18,19.8579 355.513,24.5246 358.5,29.5C 360.5,30.3333 362.5,31.1667 364.5,32C 367.764,35.7729 371.43,38.9396 375.5,41.5C 380.5,45.8333 385.167,50.5 389.5,55.5C 390.021,59.1718 390.687,62.8384 391.5,66.5C 393.636,67.4724 394.803,69.1391 395,71.5C 395.5,70.3333 396.333,69.5 397.5,69C 396.044,68.5774 395.544,67.7441 396,66.5C 400.579,68.2612 402.412,71.5945 401.5,76.5C 400.167,76.5 398.833,76.5 397.5,76.5C 397.5,77.5 397.5,78.5 397.5,79.5C 395.856,79.7135 394.356,79.3802 393,78.5C 392.506,80.1341 392.34,81.8008 392.5,83.5C 387.514,83.1454 386.181,85.1454 388.5,89.5C 385.867,90.7745 383.2,92.1079 380.5,93.5C 377.854,95.1319 376.521,97.4652 376.5,100.5C 374.876,100.64 373.71,99.9733 373,98.5C 372.667,98.8333 372.333,99.1667 372,99.5C 372.135,101.425 372.302,103.425 372.5,105.5C 365.772,113.23 358.439,120.23 350.5,126.5C 350.631,125.624 350.298,124.957 349.5,124.5C 348.833,125.5 348.167,126.5 347.5,127.5C 345.082,126.271 344.082,124.271 344.5,121.5C 344.029,117.643 345.695,115.643 349.5,115.5C 349.5,114.167 349.5,112.833 349.5,111.5C 363.107,99.3947 376.274,86.728 389,73.5C 389.781,72.0563 389.614,70.723 388.5,69.5C 384.427,65.0883 380.093,61.0883 375.5,57.5C 374.833,57.1667 374.167,56.8333 373.5,56.5C 372.833,53.1667 370.833,51.1667 367.5,50.5C 363.167,44.1667 357.833,38.8333 351.5,34.5C 349.755,30.7124 347.255,27.3791 344,24.5C 343.173,20.4589 343.34,16.4589 344.5,12.5C 345.852,13.5244 347.185,14.5244 348.5,15.5 Z"/></g>
<g><path style="opacity:0.647" fill="#7452a2" d="M 280.5,81.5 C 281.598,82.6009 281.765,83.9343 281,85.5C 275.386,97.7269 270.052,110.06 265,122.5C 264.26,124.319 263.093,125.652 261.5,126.5C 267.558,111.385 273.891,96.3847 280.5,81.5 Z"/></g>
<g><path style="opacity:1" fill="#9262cb" d="M 349.5,111.5 C 349.5,112.833 349.5,114.167 349.5,115.5C 345.695,115.643 344.029,117.643 344.5,121.5C 344.082,124.271 345.082,126.271 347.5,127.5C 348.167,126.5 348.833,125.5 349.5,124.5C 350.298,124.957 350.631,125.624 350.5,126.5C 348.648,128.991 346.648,131.491 344.5,134C 342.527,134.538 341.527,133.704 341.5,131.5C 342.22,126.863 342.72,122.197 343,117.5C 345.037,115.294 347.203,113.294 349.5,111.5 Z"/></g>
<g><path style="opacity:0.475" fill="#7a58a4" d="M 276.5,120.5 C 274.701,125.225 272.701,129.891 270.5,134.5C 266.878,135.659 263.211,135.825 259.5,135C 258.316,133.855 258.316,132.688 259.5,131.5C 262.499,133.437 265.833,133.937 269.5,133C 271.255,130.07 272.422,126.903 273,123.5C 273.759,121.937 274.926,120.937 276.5,120.5 Z"/></g>
<g><path style="opacity:0.953" fill="#805bb4" d="M 238.5,117.5 C 239.544,122.677 240.044,128.011 240,133.5C 238.951,134.517 237.784,134.684 236.5,134C 234.946,131.713 233.279,129.546 231.5,127.5C 234.028,128.184 236.195,129.518 238,131.5C 238.499,126.845 238.666,122.179 238.5,117.5 Z"/></g>
<g><path style="opacity:0.094" fill="#5c437d" d="M 430.5,211.5 C 418.167,211.5 405.833,211.5 393.5,211.5C 393.5,212.5 393.5,213.5 393.5,214.5C 391.896,213.713 391.229,212.38 391.5,210.5C 404.677,210.171 417.677,210.505 430.5,211.5 Z"/></g>
<g><path style="opacity:0.098" fill="#644a8b" d="M 571.5,221.5 C 572.336,218.093 573.336,214.759 574.5,211.5C 563.828,211.333 553.161,211.5 542.5,212C 539.969,215.358 537.302,218.524 534.5,221.5C 536.193,217.628 538.526,214.128 541.5,211C 553.495,210.5 565.495,210.333 577.5,210.5C 576.34,214.651 574.34,218.318 571.5,221.5 Z"/></g>
<g><path style="opacity:0.408" fill="#673e90" d="M 233.5,212.5 C 222.5,212.5 211.5,212.5 200.5,212.5C 211.038,211.812 221.705,211.145 232.5,210.5C 233.298,210.957 233.631,211.624 233.5,212.5 Z"/></g>
<g><path style="opacity:0.565" fill="#9665cc" d="M 430.5,211.5 C 432.588,213.336 433.921,215.669 434.5,218.5C 432.372,216.554 430.039,214.721 427.5,213C 416.839,212.5 406.172,212.333 395.5,212.5C 395.343,213.873 395.51,215.207 396,216.5C 398.781,220.372 401.281,224.372 403.5,228.5C 399.688,224.223 396.355,219.557 393.5,214.5C 393.5,213.5 393.5,212.5 393.5,211.5C 405.833,211.5 418.167,211.5 430.5,211.5 Z"/></g>
<g><path style="opacity:1" fill="#b369fd" d="M 434.5,218.5 C 437,221.494 439,224.827 440.5,228.5C 444.929,238.586 450.929,247.586 458.5,255.5C 458.343,256.873 458.51,258.207 459,259.5C 459.876,261.635 461.376,262.969 463.5,263.5C 464.167,266.833 464.833,270.167 465.5,273.5C 467.672,274.206 469.672,275.206 471.5,276.5C 474.399,279.952 477.066,283.618 479.5,287.5C 480.615,291.947 482.948,295.613 486.5,298.5C 487.338,298.842 487.672,299.508 487.5,300.5C 487.343,301.873 487.51,303.207 488,304.5C 489.739,306.043 491.239,307.71 492.5,309.5C 493.906,309.973 494.573,310.973 494.5,312.5C 494.343,313.873 494.51,315.207 495,316.5C 496.946,319.42 499.113,322.087 501.5,324.5C 501.5,349.167 501.5,373.833 501.5,398.5C 490.5,398.5 479.5,398.5 468.5,398.5C 468.831,374.661 468.498,350.994 467.5,327.5C 466.308,324.438 464.808,321.438 463,318.5C 462.667,316.5 462.333,314.5 462,312.5C 460.989,313.337 459.822,313.67 458.5,313.5C 455.863,308.038 453.03,302.705 450,297.5C 446.525,293.896 443.525,289.896 441,285.5C 440.329,284.748 439.496,284.414 438.5,284.5C 437.662,284.158 437.328,283.492 437.5,282.5C 437.335,280.173 436.669,278.007 435.5,276C 437.781,274.518 437.781,272.851 435.5,271C 433.925,271.379 432.425,271.212 431,270.5C 429.02,266.707 427.186,262.874 425.5,259C 426.744,256.697 428.411,256.197 430.5,257.5C 430.706,255.39 429.873,253.39 428,251.5C 427.059,253.061 425.892,254.395 424.5,255.5C 423.692,255.192 423.025,254.692 422.5,254C 422.616,252.732 422.949,251.398 423.5,250C 421.26,249.023 418.927,248.523 416.5,248.5C 415.167,245.507 413.167,243.173 410.5,241.5C 407.376,237.586 405.043,233.253 403.5,228.5C 401.281,224.372 398.781,220.372 396,216.5C 395.51,215.207 395.343,213.873 395.5,212.5C 406.172,212.333 416.839,212.5 427.5,213C 430.039,214.721 432.372,216.554 434.5,218.5 Z"/></g>
<g><path style="opacity:1" fill="#b36afd" d="M 330.5,251.5 C 328.833,251.5 327.167,251.5 325.5,251.5C 325.428,254.553 324.428,257.219 322.5,259.5C 320.084,261.908 318.084,264.574 316.5,267.5C 310.475,271.464 305.308,276.464 301,282.5C 300.586,282.043 300.086,281.709 299.5,281.5C 298.438,283.022 297.771,284.688 297.5,286.5C 295.727,289.06 293.727,291.393 291.5,293.5C 289.108,295.391 286.442,296.891 283.5,298C 282.833,299.667 282.167,301.333 281.5,303C 280.552,303.483 279.552,303.649 278.5,303.5C 278.5,305.167 278.5,306.833 278.5,308.5C 271.825,314.176 265.825,320.509 260.5,327.5C 254.166,329.145 250.5,333.145 249.5,339.5C 247.5,339.5 246.5,340.5 246.5,342.5C 245.5,343.5 244.5,344.5 243.5,345.5C 242.141,344.993 241.141,343.993 240.5,342.5C 239.534,344.396 239.201,346.396 239.5,348.5C 237.09,348.921 235.257,350.254 234,352.5C 233.26,353.749 233.427,354.749 234.5,355.5C 234.5,356.167 234.167,356.5 233.5,356.5C 232.504,370.323 232.171,384.323 232.5,398.5C 222.5,398.5 212.5,398.5 202.5,398.5C 202.829,385.323 202.495,372.323 201.5,359.5C 201.5,358.833 201.167,358.5 200.5,358.5C 200.428,313.456 200.428,268.456 200.5,223.5C 201.581,220.373 202.247,217.04 202.5,213.5C 212.5,213.5 222.5,213.5 232.5,213.5C 232.333,243.502 232.5,273.502 233,303.5C 236.285,303.76 238.452,302.093 239.5,298.5C 243.167,294.5 246.833,290.5 250.5,286.5C 254.195,282.474 257.862,278.474 261.5,274.5C 269.575,267.092 277.242,259.425 284.5,251.5C 297.537,240.797 309.203,228.797 319.5,215.5C 319.953,214.542 320.619,213.708 321.5,213C 335.163,212.5 348.829,212.333 362.5,212.5C 362.155,218.002 359.155,220.502 353.5,220C 354.428,220.388 355.095,221.055 355.5,222C 353.635,225.873 350.635,228.206 346.5,229C 346.957,229.414 347.291,229.914 347.5,230.5C 346.042,234.054 343.376,235.887 339.5,236C 340.555,239.258 339.555,241.924 336.5,244C 335.216,244.684 334.049,244.517 333,243.5C 331.244,244.421 331.077,245.588 332.5,247C 331.586,248.406 330.92,249.906 330.5,251.5 Z"/></g>
<g><path style="opacity:1" fill="#b269fb" d="M 571.5,221.5 C 569.469,222.539 568.136,224.205 567.5,226.5C 564.883,231.114 561.883,235.447 558.5,239.5C 557.167,239.5 555.833,239.5 554.5,239.5C 554.874,242.972 553.874,245.972 551.5,248.5C 550.675,249.386 549.675,249.719 548.5,249.5C 548.853,253.65 547.02,256.316 543,257.5C 540.883,262.066 539.05,266.732 537.5,271.5C 535.178,272.802 533.845,274.802 533.5,277.5C 532.007,278.445 530.507,279.445 529,280.5C 528.228,280.355 527.561,280.022 527,279.5C 526.503,282.146 526.336,284.813 526.5,287.5C 524.83,290.175 523.164,292.841 521.5,295.5C 520.703,294.522 520.036,294.855 519.5,296.5C 518.311,297.429 516.978,297.762 515.5,297.5C 515.039,295.45 514.372,293.45 513.5,291.5C 511.14,289.338 508.807,287.338 506.5,285.5C 504.914,282.743 503.914,279.743 503.5,276.5C 502.5,276.5 501.5,276.5 500.5,276.5C 501.975,273 502.975,269.333 503.5,265.5C 505.822,264.198 507.155,262.198 507.5,259.5C 511.934,252.951 516.601,246.617 521.5,240.5C 524.16,237.867 526.827,235.2 529.5,232.5C 530.984,228.7 532.65,225.033 534.5,221.5C 537.302,218.524 539.969,215.358 542.5,212C 553.161,211.5 563.828,211.333 574.5,211.5C 573.336,214.759 572.336,218.093 571.5,221.5 Z"/></g>
<g><path style="opacity:1" fill="#b369fd" d="M 95.5,242.5 C 94.8333,242.5 94.5,242.833 94.5,243.5C 89.752,243.275 85.0853,243.775 80.5,245C 75.8893,246.725 71.556,248.891 67.5,251.5C 65.8345,253.333 63.8345,254.666 61.5,255.5C 60.4502,256.429 60.4502,257.095 61.5,257.5C 59.1667,260.167 56.8333,262.833 54.5,265.5C 52.4078,265.561 50.9078,266.561 50,268.5C 46.0954,274.391 43.2621,280.724 41.5,287.5C 40.0735,289.148 39.2401,291.148 39,293.5C 38.5005,299.825 38.3338,306.158 38.5,312.5C 27.8333,312.5 17.1667,312.5 6.5,312.5C 6.5,305.833 6.5,299.167 6.5,292.5C 8.31141,278.387 13.4781,265.72 22,254.5C 22.49,253.207 22.6567,251.873 22.5,250.5C 31.0553,243.059 39.3886,235.392 47.5,227.5C 53.3373,226.132 58.6706,223.632 63.5,220C 67.4683,218.962 71.135,217.462 74.5,215.5C 100.775,213.644 127.109,212.978 153.5,213.5C 153.5,222.833 153.5,232.167 153.5,241.5C 133.993,241.17 114.659,241.503 95.5,242.5 Z"/></g>
<g><path style="opacity:1" fill="#9564d1" d="M 74.5,215.5 C 71.135,217.462 67.4683,218.962 63.5,220C 58.6706,223.632 53.3373,226.132 47.5,227.5C 55.586,221.627 64.586,217.627 74.5,215.5 Z"/></g>
<g><path style="opacity:0.055" fill="#563c7a" d="M 571.5,221.5 C 570.876,223.754 569.543,225.421 567.5,226.5C 568.136,224.205 569.469,222.539 571.5,221.5 Z"/></g>
<g><path style="opacity:0.52" fill="#9664d3" d="M 200.5,212.5 C 211.5,212.5 222.5,212.5 233.5,212.5C 233.5,242.167 233.5,271.833 233.5,301.5C 233.56,302.043 233.893,302.376 234.5,302.5C 236.186,301.143 237.852,299.81 239.5,298.5C 238.452,302.093 236.285,303.76 233,303.5C 232.5,273.502 232.333,243.502 232.5,213.5C 222.5,213.5 212.5,213.5 202.5,213.5C 202.247,217.04 201.581,220.373 200.5,223.5C 200.5,219.833 200.5,216.167 200.5,212.5 Z"/></g>
<g><path style="opacity:0.29" fill="#553b7a" d="M 306.5,228.5 C 301.5,234.167 296.167,239.5 290.5,244.5C 294.833,238.167 300.167,232.833 306.5,228.5 Z"/></g>
<g><path style="opacity:0.898" fill="#8a5dc0" d="M 440.5,228.5 C 447.277,236.951 453.277,245.951 458.5,255.5C 450.929,247.586 444.929,238.586 440.5,228.5 Z"/></g>
<g><path style="opacity:0.243" fill="#4f3171" d="M 40.5,231.5 C 38.7607,234.243 36.4274,236.243 33.5,237.5C 35.2393,234.757 37.5726,232.757 40.5,231.5 Z"/></g>
<g><path style="opacity:1" fill="#9b6bd6" d="M 318.5,215.5 C 318.833,215.5 319.167,215.5 319.5,215.5C 309.203,228.797 297.537,240.797 284.5,251.5C 285.757,248.573 287.757,246.239 290.5,244.5C 296.167,239.5 301.5,234.167 306.5,228.5C 309.792,223.54 313.792,219.207 318.5,215.5 Z"/></g>
<g><path style="opacity:0.349" fill="#8961be" d="M 534.5,221.5 C 532.65,225.033 530.984,228.7 529.5,232.5C 526.827,235.2 524.16,237.867 521.5,240.5C 524.669,233.338 529.002,227.005 534.5,221.5 Z"/></g>
<g><path style="opacity:0.665" fill="#a571e5" d="M 90.5,212.5 C 111.833,212.5 133.167,212.5 154.5,212.5C 154.5,222.5 154.5,232.5 154.5,242.5C 134.833,242.5 115.167,242.5 95.5,242.5C 114.659,241.503 133.993,241.17 153.5,241.5C 153.5,232.167 153.5,222.833 153.5,213.5C 127.109,212.978 100.775,213.644 74.5,215.5C 79.542,213.58 84.8754,212.58 90.5,212.5 Z"/></g>
<g><path style="opacity:0.125" fill="#634394" d="M 90.5,212.5 C 111.994,211.503 133.66,211.169 155.5,211.5C 155.5,222.167 155.5,232.833 155.5,243.5C 135.167,243.5 114.833,243.5 94.5,243.5C 94.5,242.833 94.8333,242.5 95.5,242.5C 115.167,242.5 134.833,242.5 154.5,242.5C 154.5,232.5 154.5,222.5 154.5,212.5C 133.167,212.5 111.833,212.5 90.5,212.5 Z"/></g>
<g><path style="opacity:1" fill="#9c67da" d="M 47.5,227.5 C 39.3886,235.392 31.0553,243.059 22.5,250.5C 25.4565,245.601 29.1231,241.268 33.5,237.5C 36.4274,236.243 38.7607,234.243 40.5,231.5C 42.3356,229.412 44.6689,228.079 47.5,227.5 Z"/></g>
<g><path style="opacity:1" fill="#7d52af" d="M 330.5,251.5 C 330.92,249.906 331.586,248.406 332.5,247C 331.077,245.588 331.244,244.421 333,243.5C 334.049,244.517 335.216,244.684 336.5,244C 339.555,241.924 340.555,239.258 339.5,236C 343.376,235.887 346.042,234.054 347.5,230.5C 347.291,229.914 346.957,229.414 346.5,229C 350.635,228.206 353.635,225.873 355.5,222C 355.095,221.055 354.428,220.388 353.5,220C 359.155,220.502 362.155,218.002 362.5,212.5C 348.829,212.333 335.163,212.5 321.5,213C 320.619,213.708 319.953,214.542 319.5,215.5C 319.167,215.5 318.833,215.5 318.5,215.5C 318.511,213.983 319.177,212.816 320.5,212C 335.865,211.786 351.198,211.286 366.5,210.5C 366.657,211.873 366.49,213.207 366,214.5C 353.69,226.524 341.857,238.858 330.5,251.5 Z"/></g>
<g><path style="opacity:0.725" fill="#7953a9" d="M 94.5,243.5 C 89.2075,244.66 83.8742,246.16 78.5,248C 72.7789,251.191 67.1122,254.358 61.5,257.5C 60.4502,257.095 60.4502,256.429 61.5,255.5C 63.8345,254.666 65.8345,253.333 67.5,251.5C 71.556,248.891 75.8893,246.725 80.5,245C 85.0853,243.775 89.752,243.275 94.5,243.5 Z"/></g>
<g><path style="opacity:0.114" fill="#5c407f" d="M 410.5,241.5 C 413.167,243.173 415.167,245.507 416.5,248.5C 417.11,249.391 417.443,250.391 417.5,251.5C 414.687,248.554 412.354,245.221 410.5,241.5 Z"/></g>
<g><path style="opacity:0.231" fill="#885bbd" d="M 558.5,239.5 C 552.279,250.713 545.279,261.379 537.5,271.5C 539.05,266.732 540.883,262.066 543,257.5C 547.02,256.316 548.853,253.65 548.5,249.5C 549.675,249.719 550.675,249.386 551.5,248.5C 553.874,245.972 554.874,242.972 554.5,239.5C 555.833,239.5 557.167,239.5 558.5,239.5 Z"/></g>
<g><path style="opacity:1" fill="#a868ec" d="M 416.5,248.5 C 418.927,248.523 421.26,249.023 423.5,250C 422.949,251.398 422.616,252.732 422.5,254C 423.025,254.692 423.692,255.192 424.5,255.5C 425.892,254.395 427.059,253.061 428,251.5C 429.873,253.39 430.706,255.39 430.5,257.5C 428.411,256.197 426.744,256.697 425.5,259C 427.186,262.874 429.02,266.707 431,270.5C 432.425,271.212 433.925,271.379 435.5,271C 437.781,272.851 437.781,274.518 435.5,276C 436.669,278.007 437.335,280.173 437.5,282.5C 431.931,274.373 426.598,266.039 421.5,257.5C 420.962,255.883 420.629,254.216 420.5,252.5C 419.5,252.5 418.5,252.5 417.5,252.5C 417.5,252.167 417.5,251.833 417.5,251.5C 417.443,250.391 417.11,249.391 416.5,248.5 Z"/></g>
<g><path style="opacity:0.439" fill="#6b4696" d="M 417.5,252.5 C 418.5,252.5 419.5,252.5 420.5,252.5C 420.629,254.216 420.962,255.883 421.5,257.5C 419.937,256.055 418.604,254.389 417.5,252.5 Z"/></g>
<g><path style="opacity:0.231" fill="#805ab0" d="M 330.5,251.5 C 328.833,255.167 326.167,257.833 322.5,259.5C 324.428,257.219 325.428,254.553 325.5,251.5C 327.167,251.5 328.833,251.5 330.5,251.5 Z"/></g>
<g><path style="opacity:1" fill="#825cb1" d="M 458.5,255.5 C 460.95,257.629 462.617,260.296 463.5,263.5C 461.376,262.969 459.876,261.635 459,259.5C 458.51,258.207 458.343,256.873 458.5,255.5 Z"/></g>
<g><path style="opacity:0.424" fill="#5f4682" d="M 507.5,259.5 C 507.155,262.198 505.822,264.198 503.5,265.5C 504.34,263.147 505.674,261.147 507.5,259.5 Z"/></g>
<g><path style="opacity:1" fill="#8559bd" d="M 22.5,250.5 C 22.6567,251.873 22.49,253.207 22,254.5C 13.4781,265.72 8.31141,278.387 6.5,292.5C 6.16667,292.5 5.83333,292.5 5.5,292.5C 6.89628,276.617 12.563,262.617 22.5,250.5 Z"/></g>
<g><path style="opacity:0.227" fill="#5e4186" d="M 284.5,251.5 C 277.242,259.425 269.575,267.092 261.5,274.5C 268.146,265.854 275.812,258.188 284.5,251.5 Z"/></g>
<g><path style="opacity:1" fill="#9d67d9" d="M 463.5,263.5 C 466.916,267.323 469.582,271.657 471.5,276.5C 469.672,275.206 467.672,274.206 465.5,273.5C 464.833,270.167 464.167,266.833 463.5,263.5 Z"/></g>
<g><path style="opacity:1" fill="#8359ba" d="M 503.5,265.5 C 502.975,269.333 501.975,273 500.5,276.5C 501.5,276.5 502.5,276.5 503.5,276.5C 503.914,279.743 504.914,282.743 506.5,285.5C 502.968,282.129 499.968,278.295 497.5,274C 498.96,270.719 500.96,267.886 503.5,265.5 Z"/></g>
<g><path style="opacity:0.063" fill="#6b4a96" d="M 537.5,271.5 C 536.66,273.853 535.326,275.853 533.5,277.5C 533.845,274.802 535.178,272.802 537.5,271.5 Z"/></g>
<g><path style="opacity:0.075" fill="#653e91" d="M 316.5,267.5 C 312.17,271.998 308.003,276.665 304,281.5C 302.223,283.79 300.056,285.457 297.5,286.5C 297.771,284.688 298.438,283.022 299.5,281.5C 300.086,281.709 300.586,282.043 301,282.5C 305.308,276.464 310.475,271.464 316.5,267.5 Z"/></g>
<g><path style="opacity:0.714" fill="#7d54ae" d="M 54.5,265.5 C 48.5105,274.141 44.1771,283.475 41.5,293.5C 41.5,291.5 41.5,289.5 41.5,287.5C 43.2621,280.724 46.0954,274.391 50,268.5C 50.9078,266.561 52.4078,265.561 54.5,265.5 Z"/></g>
<g><path style="opacity:1" fill="#8b5ac7" d="M 533.5,277.5 C 531.938,281.392 529.605,284.725 526.5,287.5C 526.336,284.813 526.503,282.146 527,279.5C 527.561,280.022 528.228,280.355 529,280.5C 530.507,279.445 532.007,278.445 533.5,277.5 Z"/></g>
<g><path style="opacity:0.133" fill="#503279" d="M 479.5,287.5 C 482.221,290.894 484.554,294.561 486.5,298.5C 482.948,295.613 480.615,291.947 479.5,287.5 Z"/></g>
<g><path style="opacity:0.275" fill="#593c7f" d="M 250.5,286.5 C 246.833,290.5 243.167,294.5 239.5,298.5C 237.852,299.81 236.186,301.143 234.5,302.5C 233.893,302.376 233.56,302.043 233.5,301.5C 238.89,296.106 244.556,291.106 250.5,286.5 Z"/></g>
<g><path style="opacity:0.745" fill="#8a5fc0" d="M 506.5,285.5 C 508.807,287.338 511.14,289.338 513.5,291.5C 514.372,293.45 515.039,295.45 515.5,297.5C 512.512,293.538 509.512,289.538 506.5,285.5 Z"/></g>
<g><path style="opacity:1" fill="#835ab7" d="M 438.5,284.5 C 439.496,284.414 440.329,284.748 441,285.5C 443.525,289.896 446.525,293.896 450,297.5C 453.03,302.705 455.863,308.038 458.5,313.5C 458.5,313.833 458.5,314.167 458.5,314.5C 451.35,304.881 444.684,294.881 438.5,284.5 Z"/></g>
<g><path style="opacity:0.58" fill="#8460b5" d="M 521.5,295.5 C 520.555,300.931 518.555,301.598 515.5,297.5C 516.978,297.762 518.311,297.429 519.5,296.5C 520.036,294.855 520.703,294.522 521.5,295.5 Z"/></g>
<g><path style="opacity:1" fill="#774ea6" d="M 291.5,293.5 C 287.511,298.821 283.178,303.821 278.5,308.5C 278.5,306.833 278.5,305.167 278.5,303.5C 279.552,303.649 280.552,303.483 281.5,303C 282.167,301.333 282.833,299.667 283.5,298C 286.442,296.891 289.108,295.391 291.5,293.5 Z"/></g>
<g><path style="opacity:0.514" fill="#6b4896" d="M 121.5,300.5 C 132.833,300.5 144.167,300.5 155.5,300.5C 155.822,306.358 155.489,312.025 154.5,317.5C 154.5,312.167 154.5,306.833 154.5,301.5C 143.321,301.828 132.321,301.495 121.5,300.5 Z"/></g>
<g><path style="opacity:1" fill="#b369fd" d="M 127.5,373.5 C 125.833,373.5 124.167,373.5 122.5,373.5C 122.607,375.903 121.607,377.736 119.5,379C 114.636,381.188 110.303,384.021 106.5,387.5C 102.942,389.446 99.2755,391.113 95.5,392.5C 91.4988,392.285 87.6654,392.952 84,394.5C 81.8295,393.666 79.8295,393.333 78,393.5C 75.8272,394.889 73.6606,396.222 71.5,397.5C 49.8436,398.5 28.1769,398.833 6.5,398.5C 6.5,389.167 6.5,379.833 6.5,370.5C 28.1692,370.667 49.8359,370.5 71.5,370C 75.6463,368.351 79.6463,366.517 83.5,364.5C 84.6594,362.75 86.326,361.75 88.5,361.5C 93.8762,360.312 98.5429,357.812 102.5,354C 106.738,348.98 111.071,344.146 115.5,339.5C 116.167,336.833 116.833,334.167 117.5,331.5C 118.192,332.025 118.692,332.692 119,333.5C 120.125,323.334 120.625,313.001 120.5,302.5C 131.415,302.18 142.248,302.513 153,303.5C 153.978,314.385 152.978,325.052 150,335.5C 149.692,334.692 149.192,334.025 148.5,333.5C 147.389,340.08 145.722,346.413 143.5,352.5C 142.5,352.5 141.5,352.5 140.5,352.5C 140.762,353.978 140.429,355.311 139.5,356.5C 137.997,356.835 136.664,356.835 135.5,356.5C 136.348,358.409 136.682,360.409 136.5,362.5C 134.801,362.34 133.134,362.506 131.5,363C 132.167,363.333 132.833,363.667 133.5,364C 132.316,366.685 130.483,368.852 128,370.5C 127.517,371.448 127.351,372.448 127.5,373.5 Z"/></g>
<g><path style="opacity:0.589" fill="#5c3b81" d="M 41.5,293.5 C 41.0561,300.827 40.7228,308.16 40.5,315.5C 38.5,315.5 36.5,315.5 34.5,315.5C 36.1667,314.833 37.8333,314.167 39.5,313.5C 39.3974,306.614 40.064,299.947 41.5,293.5 Z"/></g>
<g><path style="opacity:0.82" fill="#7f53b0" d="M 487.5,300.5 C 490.405,302.756 492.072,305.756 492.5,309.5C 491.239,307.71 489.739,306.043 488,304.5C 487.51,303.207 487.343,301.873 487.5,300.5 Z"/></g>
<g><path style="opacity:1" fill="#ab6fee" d="M 41.5,287.5 C 41.5,289.5 41.5,291.5 41.5,293.5C 40.064,299.947 39.3974,306.614 39.5,313.5C 28.1667,313.5 16.8333,313.5 5.5,313.5C 5.5,306.5 5.5,299.5 5.5,292.5C 5.83333,292.5 6.16667,292.5 6.5,292.5C 6.5,299.167 6.5,305.833 6.5,312.5C 17.1667,312.5 27.8333,312.5 38.5,312.5C 38.3338,306.158 38.5005,299.825 39,293.5C 39.2401,291.148 40.0735,289.148 41.5,287.5 Z"/></g>
<g><path style="opacity:1" fill="#6745a1" d="M 5.5,292.5 C 5.5,299.5 5.5,306.5 5.5,313.5C 16.8333,313.5 28.1667,313.5 39.5,313.5C 37.8333,314.167 36.1667,314.833 34.5,315.5C 24.8276,315.666 15.1609,315.5 5.5,315C 4.17288,307.402 4.17288,299.902 5.5,292.5 Z"/></g>
<g><path style="opacity:0.612" fill="#5b4185" d="M 119.5,300.5 C 119.666,306.842 119.5,313.175 119,319.5C 118.722,320.416 118.222,321.082 117.5,321.5C 117.907,314.33 118.574,307.33 119.5,300.5 Z"/></g>
<g><path style="opacity:0.141" fill="#5c3b86" d="M 304.5,319.5 C 301.212,319.016 298.545,320.016 296.5,322.5C 297.588,318.896 299.921,317.063 303.5,317C 304.252,317.671 304.586,318.504 304.5,319.5 Z"/></g>
<g><path style="opacity:0.831" fill="#8e60c5" d="M 304.5,319.5 C 307.209,322.208 309.542,325.208 311.5,328.5C 308.001,327.163 305.334,324.83 303.5,321.5C 302.635,320.417 301.635,320.251 300.5,321C 294.098,326.647 288.264,332.814 283,339.5C 283.005,342.536 283.505,345.536 284.5,348.5C 282.188,346.854 280.188,344.854 278.5,342.5C 284.181,335.489 290.181,328.823 296.5,322.5C 298.545,320.016 301.212,319.016 304.5,319.5 Z"/></g>
<g><path style="opacity:0.365" fill="#53387c" d="M 311.5,328.5 C 313.587,329.585 314.92,331.251 315.5,333.5C 313.413,332.415 312.08,330.749 311.5,328.5 Z"/></g>
<g><path style="opacity:1" fill="#b269fb" d="M 311.5,328.5 C 312.08,330.749 313.413,332.415 315.5,333.5C 314.916,336.983 315.749,339.983 318,342.5C 318.333,342.167 318.667,341.833 319,341.5C 319.374,342.416 319.874,343.25 320.5,344C 319.167,344.667 319.167,345.333 320.5,346C 316.316,347.291 315.65,349.458 318.5,352.5C 319.192,351.975 319.692,351.308 320,350.5C 321.644,353.311 323.81,355.644 326.5,357.5C 327.799,356.91 328.632,355.91 329,354.5C 330.887,356.026 331.887,358.026 332,360.5C 338.129,363.273 340.795,367.94 340,374.5C 341.666,375.34 341.833,374.84 340.5,373C 344.492,371.823 346.158,373.323 345.5,377.5C 346.833,377.5 348.167,377.5 349.5,377.5C 351.528,381.589 353.695,385.589 356,389.5C 357.47,390.267 358.97,390.933 360.5,391.5C 362.587,392.585 363.92,394.251 364.5,396.5C 364.414,397.496 364.748,398.329 365.5,399C 351.837,399.5 338.171,399.667 324.5,399.5C 317.214,389.545 309.547,379.879 301.5,370.5C 299.758,367.357 297.758,364.357 295.5,361.5C 294.228,355.897 290.895,352.231 285.5,350.5C 284.662,350.158 284.328,349.492 284.5,348.5C 283.505,345.536 283.005,342.536 283,339.5C 288.264,332.814 294.098,326.647 300.5,321C 301.635,320.251 302.635,320.417 303.5,321.5C 305.334,324.83 308.001,327.163 311.5,328.5 Z"/></g>
<g><path style="opacity:1" fill="#9e67dc" d="M 119.5,300.5 C 120.167,300.5 120.833,300.5 121.5,300.5C 132.321,301.495 143.321,301.828 154.5,301.5C 154.5,306.833 154.5,312.167 154.5,317.5C 153.593,331.972 149.26,345.305 141.5,357.5C 139.469,358.539 138.136,360.205 137.5,362.5C 134.877,366.791 131.544,370.457 127.5,373.5C 127.351,372.448 127.517,371.448 128,370.5C 130.483,368.852 132.316,366.685 133.5,364C 132.833,363.667 132.167,363.333 131.5,363C 133.134,362.506 134.801,362.34 136.5,362.5C 136.682,360.409 136.348,358.409 135.5,356.5C 136.664,356.835 137.997,356.835 139.5,356.5C 140.429,355.311 140.762,353.978 140.5,352.5C 141.5,352.5 142.5,352.5 143.5,352.5C 145.722,346.413 147.389,340.08 148.5,333.5C 149.192,334.025 149.692,334.692 150,335.5C 152.978,325.052 153.978,314.385 153,303.5C 142.248,302.513 131.415,302.18 120.5,302.5C 120.625,313.001 120.125,323.334 119,333.5C 118.692,332.692 118.192,332.025 117.5,331.5C 116.833,334.167 116.167,336.833 115.5,339.5C 111.071,344.146 106.738,348.98 102.5,354C 98.5429,357.812 93.8762,360.312 88.5,361.5C 103.634,352.046 113.301,338.713 117.5,321.5C 118.222,321.082 118.722,320.416 119,319.5C 119.5,313.175 119.666,306.842 119.5,300.5 Z"/></g>
<g><path style="opacity:0.914" fill="#774aa1" d="M 260.5,327.5 C 257.29,331.921 253.623,335.921 249.5,339.5C 250.5,333.145 254.166,329.145 260.5,327.5 Z"/></g>
<g><path style="opacity:0.999" fill="#7c52b5" d="M 467.5,327.5 C 467.5,351.5 467.5,375.5 467.5,399.5C 479.167,399.5 490.833,399.5 502.5,399.5C 502.833,399.5 503.167,399.5 503.5,399.5C 503.389,400.117 503.056,400.617 502.5,401C 490.258,401.821 478.091,401.654 466,400.5C 465.667,375.833 465.333,351.167 465,326.5C 463.09,322.345 460.923,318.345 458.5,314.5C 458.5,314.167 458.5,313.833 458.5,313.5C 459.822,313.67 460.989,313.337 462,312.5C 462.333,314.5 462.667,316.5 463,318.5C 464.808,321.438 466.308,324.438 467.5,327.5 Z"/></g>
<g><path style="opacity:0.755" fill="#ab6dee" d="M 501.5,324.5 C 502.498,349.328 502.831,374.328 502.5,399.5C 490.833,399.5 479.167,399.5 467.5,399.5C 467.5,375.5 467.5,351.5 467.5,327.5C 468.498,350.994 468.831,374.661 468.5,398.5C 479.5,398.5 490.5,398.5 501.5,398.5C 501.5,373.833 501.5,349.167 501.5,324.5 Z"/></g>
<g><path style="opacity:0.169" fill="#7c52ae" d="M 494.5,312.5 C 497.797,315.736 500.63,319.403 503,323.5C 503.5,348.831 503.667,374.164 503.5,399.5C 503.167,399.5 502.833,399.5 502.5,399.5C 502.831,374.328 502.498,349.328 501.5,324.5C 499.113,322.087 496.946,319.42 495,316.5C 494.51,315.207 494.343,313.873 494.5,312.5 Z"/></g>
<g><path style="opacity:0.016" fill="#48255f" d="M 249.5,339.5 C 248.833,340.833 247.833,341.833 246.5,342.5C 246.5,340.5 247.5,339.5 249.5,339.5 Z"/></g>
<g><path style="opacity:1" fill="#9862d5" d="M 243.5,345.5 C 240.5,348.833 237.5,352.167 234.5,355.5C 233.427,354.749 233.26,353.749 234,352.5C 235.257,350.254 237.09,348.921 239.5,348.5C 239.201,346.396 239.534,344.396 240.5,342.5C 241.141,343.993 242.141,344.993 243.5,345.5 Z"/></g>
<g><path style="opacity:1" fill="#a869eb" d="M 315.5,333.5 C 317.759,337.1 320.426,340.433 323.5,343.5C 324.01,346.674 325.677,349.008 328.5,350.5C 329.08,352.749 330.413,354.415 332.5,355.5C 338.925,362.257 344.592,369.59 349.5,377.5C 348.167,377.5 346.833,377.5 345.5,377.5C 346.158,373.323 344.492,371.823 340.5,373C 341.833,374.84 341.666,375.34 340,374.5C 340.795,367.94 338.129,363.273 332,360.5C 331.887,358.026 330.887,356.026 329,354.5C 328.632,355.91 327.799,356.91 326.5,357.5C 323.81,355.644 321.644,353.311 320,350.5C 319.692,351.308 319.192,351.975 318.5,352.5C 315.65,349.458 316.316,347.291 320.5,346C 319.167,345.333 319.167,344.667 320.5,344C 319.874,343.25 319.374,342.416 319,341.5C 318.667,341.833 318.333,342.167 318,342.5C 315.749,339.983 314.916,336.983 315.5,333.5 Z"/></g>
<g><path style="opacity:0.616" fill="#68448b" d="M 323.5,343.5 C 325.547,345.55 327.214,347.883 328.5,350.5C 325.677,349.008 324.01,346.674 323.5,343.5 Z"/></g>
<g><path style="opacity:0.537" fill="#6b4594" d="M 328.5,350.5 C 330.587,351.585 331.92,353.251 332.5,355.5C 330.413,354.415 329.08,352.749 328.5,350.5 Z"/></g>
<g><path style="opacity:1" fill="#925dc9" d="M 285.5,350.5 C 290.895,352.231 294.228,355.897 295.5,361.5C 294.833,361.5 294.167,361.5 293.5,361.5C 290.833,357.833 288.167,354.167 285.5,350.5 Z"/></g>
<g><path style="opacity:0.031" fill="#44215f" d="M 141.5,357.5 C 140.876,359.754 139.543,361.421 137.5,362.5C 138.136,360.205 139.469,358.539 141.5,357.5 Z"/></g>
<g><path style="opacity:0.231" fill="#533076" d="M 293.5,361.5 C 294.167,361.5 294.833,361.5 295.5,361.5C 297.758,364.357 299.758,367.357 301.5,370.5C 298.608,367.729 295.942,364.729 293.5,361.5 Z"/></g>
<g><path style="opacity:0.918" fill="#9c6bd5" d="M 83.5,364.5 C 79.6463,366.517 75.6463,368.351 71.5,370C 49.8359,370.5 28.1692,370.667 6.5,370.5C 6.16667,370.5 5.83333,370.5 5.5,370.5C 5.16667,370.5 4.83333,370.5 4.5,370.5C 22.9955,369.668 41.6622,369.168 60.5,369C 68.3752,368.427 76.0419,366.927 83.5,364.5 Z"/></g>
<g><path style="opacity:0.541" fill="#8e61c6" d="M 127.5,373.5 C 122.065,379.384 115.731,384.051 108.5,387.5C 107.833,387.5 107.167,387.5 106.5,387.5C 110.303,384.021 114.636,381.188 119.5,379C 121.607,377.736 122.607,375.903 122.5,373.5C 124.167,373.5 125.833,373.5 127.5,373.5 Z"/></g>
<g><path style="opacity:0.2" fill="#2c1862" d="M 4.5,370.5 C 4.83333,370.5 5.16667,370.5 5.5,370.5C 5.18105,380.416 5.51438,390.25 6.5,400C 25.4971,400.5 44.4971,400.667 63.5,400.5C 44.3377,401.662 25.0044,401.829 5.5,401C 4.51389,390.916 4.18055,380.749 4.5,370.5 Z"/></g>
<g><path style="opacity:1" fill="#9462d0" d="M 349.5,377.5 C 353.922,381.587 357.589,386.254 360.5,391.5C 358.97,390.933 357.47,390.267 356,389.5C 353.695,385.589 351.528,381.589 349.5,377.5 Z"/></g>
<g><path style="opacity:0.714" fill="#7950ab" d="M 106.5,387.5 C 107.167,387.5 107.833,387.5 108.5,387.5C 97.896,394.258 86.2294,398.258 73.5,399.5C 74.0577,398.21 75.0577,397.377 76.5,397C 83.2347,396.336 89.568,394.836 95.5,392.5C 99.2755,391.113 102.942,389.446 106.5,387.5 Z"/></g>
<g><path style="opacity:1" fill="#a36be0" d="M 5.5,370.5 C 5.83333,370.5 6.16667,370.5 6.5,370.5C 6.5,379.833 6.5,389.167 6.5,398.5C 28.1769,398.833 49.8436,398.5 71.5,397.5C 73.6606,396.222 75.8272,394.889 78,393.5C 79.8295,393.333 81.8295,393.666 84,394.5C 87.6654,392.952 91.4988,392.285 95.5,392.5C 89.568,394.836 83.2347,396.336 76.5,397C 75.0577,397.377 74.0577,398.21 73.5,399.5C 70.3752,400.479 67.0419,400.813 63.5,400.5C 44.4971,400.667 25.4971,400.5 6.5,400C 5.51438,390.25 5.18105,380.416 5.5,370.5 Z"/></g>
<g><path style="opacity:1" fill="#a56be8" d="M 233.5,356.5 C 233.5,370.833 233.5,385.167 233.5,399.5C 222.833,399.5 212.167,399.5 201.5,399.5C 201.5,386.167 201.5,372.833 201.5,359.5C 202.495,372.323 202.829,385.323 202.5,398.5C 212.5,398.5 222.5,398.5 232.5,398.5C 232.171,384.323 232.504,370.323 233.5,356.5 Z"/></g>
<g><path style="opacity:0.259" fill="#9c77d0" d="M 200.5,358.5 C 201.167,358.5 201.5,358.833 201.5,359.5C 201.5,372.833 201.5,386.167 201.5,399.5C 212.167,399.5 222.833,399.5 233.5,399.5C 233.217,400.289 232.717,400.956 232,401.5C 221.582,400.513 211.082,400.18 200.5,400.5C 200.5,386.5 200.5,372.5 200.5,358.5 Z"/></g>
<g><path style="opacity:0.259" fill="#9272cb" d="M 364.5,396.5 C 367.968,398.044 368.135,399.71 365,401.5C 351.402,400.842 337.902,400.175 324.5,399.5C 338.171,399.667 351.837,399.5 365.5,399C 364.748,398.329 364.414,397.496 364.5,396.5 Z"/></g>
</svg>
