<svg version="1.1" id="Layer_1" xmlns="http://www.w3.org/2000/svg" xmlns:xlink="http://www.w3.org/1999/xlink" x="0px" y="0px"
	 width="100%" viewBox="0 0 275 398" enable-background="new 0 0 275 398" xml:space="preserve">
<path fill="#F2F2F2" opacity="1.000000" stroke="none" 
	d="
M124.000000,399.000000 
	C82.666672,399.000000 41.833347,399.000000 1.000016,399.000000 
	C1.000011,266.333374 1.000011,133.666733 1.000005,1.000070 
	C92.666618,1.000046 184.333237,1.000046 275.999878,1.000023 
	C275.999939,133.666595 275.999939,266.333191 275.999969,398.999878 
	C225.500000,399.000000 175.000000,399.000000 124.000000,399.000000 
M221.486893,285.003265 
	C225.637253,285.003265 229.787598,285.003265 234.193115,285.003265 
	C234.193115,207.609543 234.193115,130.520248 234.193115,53.269455 
	C173.283478,53.269455 112.561211,53.269455 51.727283,53.269455 
	C51.727283,130.610535 51.727283,207.678452 51.727283,285.003265 
	C108.192528,285.003265 164.342209,285.003265 221.486893,285.003265 
M55.870934,359.970459 
	C54.427643,360.092621 52.984352,360.214813 51.541061,360.336975 
	C51.591450,360.704346 51.641834,361.071716 51.692219,361.439087 
	C112.532990,361.439087 173.373749,361.439087 234.214523,361.439087 
	C234.215744,360.949554 234.216949,360.459991 234.218170,359.970459 
	C175.077271,359.970459 115.936371,359.970459 55.870934,359.970459 
M209.955780,317.959503 
	C204.917450,318.663330 203.000748,321.867706 202.944855,326.625763 
	C202.902878,330.198395 204.363480,333.118591 207.869629,333.719482 
	C211.403046,334.325012 215.121170,333.852783 218.658386,333.852783 
	C218.658386,325.652557 218.658386,318.055878 218.658386,310.235596 
	C217.066727,310.235596 215.698700,310.235596 214.086029,310.235596 
	C214.086029,312.136841 213.920715,313.788300 214.122208,315.393677 
	C214.483795,318.274597 212.813965,318.255371 209.955780,317.959503 
M106.991562,329.363892 
	C109.979813,333.655701 114.306343,335.354187 118.958763,333.714264 
	C119.944511,333.366821 120.525978,331.872406 121.293709,330.906433 
	C116.813545,331.154877 113.243912,331.859100 110.582802,326.721924 
	C114.809113,326.721924 118.058861,326.721924 121.276657,326.721924 
	C121.595680,319.453308 116.812340,315.829468 110.985443,318.650574 
	C106.818069,320.668152 105.651573,324.252563 106.991562,329.363892 
M226.480972,333.518677 
	C233.945343,334.761871 235.522705,334.216034 235.548965,330.316559 
	C231.994415,330.838196 228.091904,332.305145 225.941528,326.807556 
	C229.688400,326.807556 232.935577,326.807556 236.131409,326.807556 
	C236.707336,320.738129 234.834854,318.190002 230.012711,317.968353 
	C226.089279,317.788025 223.176453,319.383759 221.912125,323.140320 
	C220.475250,327.409546 221.503601,330.961639 226.480972,333.518677 
M184.109802,324.879669 
	C184.290970,331.365784 187.276581,334.436646 193.002548,334.026428 
	C198.132309,333.658936 201.584442,329.553070 200.858154,324.553833 
	C200.313965,320.808105 198.001450,318.572113 194.329071,318.082703 
	C189.486786,317.437378 185.908051,319.261932 184.109802,324.879669 
M173.006348,316.533295 
	C175.588303,315.955322 178.170258,315.377380 181.799835,314.564941 
	C180.833939,313.648804 180.064941,312.275940 179.067719,312.083069 
	C174.293549,311.159576 169.403931,313.500000 167.219696,317.667847 
	C164.939117,322.019501 165.022141,326.406586 168.180374,330.299591 
	C171.396057,334.263397 175.962158,334.473602 180.527512,333.760437 
	C181.354233,333.631287 181.934143,331.922089 181.895172,331.977112 
	C178.311996,330.488892 174.445862,329.946533 172.311295,327.733765 
	C169.494690,324.813995 170.042755,320.641205 173.006348,316.533295 
M91.323196,322.514191 
	C91.323196,326.277527 91.323196,330.040863 91.323196,333.876434 
	C96.321198,333.876434 100.615707,333.876434 105.103523,333.876434 
	C105.157135,333.098816 105.302910,331.938232 105.228653,331.923981 
	C102.210228,331.344666 99.171974,330.868652 95.782852,330.322571 
	C95.782852,324.232819 95.782852,318.151154 95.782852,312.217041 
	C92.520432,311.424683 90.931236,312.184875 91.285828,315.549652 
	C91.494148,317.526428 91.323502,319.543152 91.323196,322.514191 
M144.184143,332.656616 
	C146.791550,333.038574 149.465836,333.935760 151.981293,333.609314 
	C153.490280,333.413452 155.802902,331.351959 155.859039,330.047455 
	C155.930145,328.395416 154.332703,326.403961 152.971893,325.041138 
	C151.846542,323.914062 150.019882,323.487274 148.503952,322.750183 
	C148.601151,322.368805 148.698349,321.987396 148.795547,321.606018 
	C150.756882,321.606018 152.718216,321.606018 154.884811,321.606018 
	C155.020874,320.742188 155.320450,319.303558 155.240204,319.282013 
	C153.310257,318.764771 151.196533,317.773438 149.416397,318.180664 
	C147.608276,318.594269 145.572968,320.121185 144.710815,321.734375 
	C144.231750,322.630798 145.602585,325.061493 146.754959,326.148285 
	C148.248001,327.556335 150.354355,328.314087 152.196655,329.351776 
	C152.048828,329.778046 151.900986,330.204346 151.753143,330.630615 
	C150.040344,330.630615 148.313141,330.499603 146.620865,330.685913 
	C145.776016,330.778931 144.995071,331.452057 144.184143,332.656616 
M129.915039,316.484924 
	C129.378723,315.351654 128.842422,314.218353 128.306107,313.085083 
	C127.481514,313.871521 126.535629,314.566956 125.860909,315.465881 
	C124.864143,316.793854 124.060188,318.266571 123.709358,318.825287 
	C124.362244,321.568970 124.905098,323.553162 125.292542,325.567261 
	C125.636322,327.354431 125.303665,329.496979 126.195068,330.890808 
	C127.106476,332.315918 129.032486,333.396637 130.730133,333.899017 
	C131.731064,334.195190 133.151123,333.075073 134.382690,332.591919 
	C127.364723,330.327454 130.247330,325.335815 129.872421,322.229370 
	C131.562454,321.010803 132.711761,320.182129 133.861069,319.353455 
	C132.549561,318.679626 131.238052,318.005798 129.915039,316.484924 
M79.086296,327.832428 
	C78.988068,326.562805 79.367813,324.586212 78.711296,324.142334 
	C75.339302,321.862579 71.700859,319.976959 67.455559,317.554199 
	C66.346413,324.492218 74.009926,322.386780 74.845016,326.322845 
	C66.777748,331.269623 66.777748,331.269623 68.569794,333.824707 
	C71.861626,331.933075 75.165260,330.034637 79.086296,327.832428 
M48.091759,331.310791 
	C49.637905,332.186340 51.184052,333.061890 52.697449,333.918884 
	C55.561413,331.153351 53.635548,330.227570 51.465763,329.255127 
	C49.499725,328.373962 47.606281,327.330811 45.283821,326.158722 
	C54.193604,320.795135 54.193604,320.795135 52.487064,318.096130 
	C48.352757,320.519318 44.221378,322.940796 39.101952,325.941376 
	C42.730297,328.129272 45.089741,329.552002 48.091759,331.310791 
M61.904335,310.381622 
	C59.846321,319.816986 57.788311,329.252350 55.730297,338.687744 
	C56.108437,338.907318 56.486580,339.126923 56.864719,339.346527 
	C57.588577,338.738647 58.791042,338.242584 58.963177,337.505798 
	C60.958237,328.966522 62.832439,320.397980 64.578613,311.804657 
	C64.668983,311.359924 63.312565,310.621216 61.904335,310.381622 
M137.630356,317.359070 
	C137.088196,318.669067 136.546051,319.979034 136.003891,321.289032 
	C136.629288,321.589081 137.254684,321.889160 137.880081,322.189209 
	C139.420303,319.324615 141.207413,316.551971 142.331711,313.532501 
	C142.622314,312.752075 140.833435,311.197296 139.999771,309.998230 
	C138.910156,311.119629 137.500458,312.087128 136.857910,313.423462 
	C136.505096,314.157257 137.445114,315.512634 137.630356,317.359070 
z"/>
<path fill="#363636" opacity="1.000000" stroke="none" 
	d="
M220.989380,285.003265 
	C164.342209,285.003265 108.192528,285.003265 51.727283,285.003265 
	C51.727283,207.678452 51.727283,130.610535 51.727283,53.269455 
	C112.561211,53.269455 173.283478,53.269455 234.193115,53.269455 
	C234.193115,130.520248 234.193115,207.609543 234.193115,285.003265 
	C229.787598,285.003265 225.637253,285.003265 220.989380,285.003265 
M61.731594,254.239807 
	C59.686153,260.561920 57.417229,266.822968 55.667686,273.225922 
	C54.326103,278.135864 56.038700,280.745117 61.092571,281.056946 
	C68.545280,281.516785 76.040428,281.299408 83.517639,281.348389 
	C89.426872,281.387115 92.370659,278.201721 93.991287,272.675232 
	C97.124474,261.990814 100.754951,251.452591 104.150948,240.844681 
	C104.849998,238.661087 105.668671,237.200211 108.540970,237.216827 
	C131.197601,237.347824 153.855331,237.289597 176.745056,237.289597 
	C177.475327,239.245880 178.219070,241.076309 178.846512,242.945755 
	C182.444550,253.665939 186.099731,264.368225 189.549408,275.136200 
	C190.778015,278.971252 193.028015,281.045349 197.068054,281.152985 
	C204.388519,281.348022 211.714371,281.855194 219.027252,281.706055 
	C231.344131,281.454926 232.964630,279.226807 228.922668,267.573944 
	C209.183792,210.667282 189.283096,153.816772 169.508041,96.922630 
	C168.006866,92.603645 165.213379,90.102859 160.780701,90.007965 
	C149.475281,89.765938 138.164169,89.777031 126.855179,89.719589 
	C120.580444,89.687721 117.605934,93.144806 115.613701,98.937248 
	C97.878265,150.503189 79.899582,201.985474 61.731594,254.239807 
z"/>
<path fill="#404040" opacity="1.000000" stroke="none" 
	d="
M56.333199,359.970459 
	C115.936371,359.970459 175.077271,359.970459 234.218170,359.970459 
	C234.216949,360.459991 234.215744,360.949554 234.214523,361.439087 
	C173.373749,361.439087 112.532990,361.439087 51.692219,361.439087 
	C51.641834,361.071716 51.591450,360.704346 51.541061,360.336975 
	C52.984352,360.214813 54.427643,360.092621 56.333199,359.970459 
z"/>
<path fill="#FE1717" opacity="1.000000" stroke="none" 
	d="
M210.389557,317.957764 
	C212.813965,318.255371 214.483795,318.274597 214.122208,315.393677 
	C213.920715,313.788300 214.086029,312.136841 214.086029,310.235596 
	C215.698700,310.235596 217.066727,310.235596 218.658386,310.235596 
	C218.658386,318.055878 218.658386,325.652557 218.658386,333.852783 
	C215.121170,333.852783 211.403046,334.325012 207.869629,333.719482 
	C204.363480,333.118591 202.902878,330.198395 202.944855,326.625763 
	C203.000748,321.867706 204.917450,318.663330 210.389557,317.957764 
M214.305634,322.950989 
	C212.690659,322.536316 211.075699,322.121643 209.460724,321.706940 
	C208.923889,323.926025 207.894882,326.186127 208.074997,328.345428 
	C208.155136,329.305969 210.672775,330.063202 212.084061,330.912689 
	C212.844330,329.369507 213.707275,327.865509 214.318161,326.265320 
	C214.591400,325.549561 214.358795,324.640717 214.305634,322.950989 
z"/>
<path fill="#FE1111" opacity="1.000000" stroke="none" 
	d="
M106.853912,329.006561 
	C105.651573,324.252563 106.818069,320.668152 110.985443,318.650574 
	C116.812340,315.829468 121.595680,319.453308 121.276657,326.721924 
	C118.058861,326.721924 114.809113,326.721924 110.582802,326.721924 
	C113.243912,331.859100 116.813545,331.154877 121.293709,330.906433 
	C120.525978,331.872406 119.944511,333.366821 118.958763,333.714264 
	C114.306343,335.354187 109.979813,333.655701 106.853912,329.006561 
z"/>
<path fill="#FE1111" opacity="1.000000" stroke="none" 
	d="
M226.114349,333.344360 
	C221.503601,330.961639 220.475250,327.409546 221.912125,323.140320 
	C223.176453,319.383759 226.089279,317.788025 230.012711,317.968353 
	C234.834854,318.190002 236.707336,320.738129 236.131409,326.807556 
	C232.935577,326.807556 229.688400,326.807556 225.941528,326.807556 
	C228.091904,332.305145 231.994415,330.838196 235.548965,330.316559 
	C235.522705,334.216034 233.945343,334.761871 226.114349,333.344360 
z"/>
<path fill="#FE1717" opacity="1.000000" stroke="none" 
	d="
M184.169464,324.489624 
	C185.908051,319.261932 189.486786,317.437378 194.329071,318.082703 
	C198.001450,318.572113 200.313965,320.808105 200.858154,324.553833 
	C201.584442,329.553070 198.132309,333.658936 193.002548,334.026428 
	C187.276581,334.436646 184.290970,331.365784 184.169464,324.489624 
M188.949463,323.959229 
	C189.009094,325.427734 188.723129,327.020782 189.198334,328.339508 
	C190.276993,331.332825 194.183044,331.962067 195.277679,329.219696 
	C196.054382,327.273834 195.902817,324.190948 194.821655,322.450348 
	C193.215363,319.864288 190.848114,320.969574 188.949463,323.959229 
z"/>
<path fill="#FE1010" opacity="1.000000" stroke="none" 
	d="
M172.718246,316.817169 
	C170.042755,320.641205 169.494690,324.813995 172.311295,327.733765 
	C174.445862,329.946533 178.311996,330.488892 181.895172,331.977112 
	C181.934143,331.922089 181.354233,333.631287 180.527512,333.760437 
	C175.962158,334.473602 171.396057,334.263397 168.180374,330.299591 
	C165.022141,326.406586 164.939117,322.019501 167.219696,317.667847 
	C169.403931,313.500000 174.293549,311.159576 179.067719,312.083069 
	C180.064941,312.275940 180.833939,313.648804 181.799835,314.564941 
	C178.170258,315.377380 175.588303,315.955322 172.718246,316.817169 
z"/>
<path fill="#FE1515" opacity="1.000000" stroke="none" 
	d="
M91.323257,322.028046 
	C91.323502,319.543152 91.494148,317.526428 91.285828,315.549652 
	C90.931236,312.184875 92.520432,311.424683 95.782852,312.217041 
	C95.782852,318.151154 95.782852,324.232819 95.782852,330.322571 
	C99.171974,330.868652 102.210228,331.344666 105.228653,331.923981 
	C105.302910,331.938232 105.157135,333.098816 105.103523,333.876434 
	C100.615707,333.876434 96.321198,333.876434 91.323196,333.876434 
	C91.323196,330.040863 91.323196,326.277527 91.323257,322.028046 
z"/>
<path fill="#FE1313" opacity="1.000000" stroke="none" 
	d="
M144.184677,332.259705 
	C144.995071,331.452057 145.776016,330.778931 146.620865,330.685913 
	C148.313141,330.499603 150.040344,330.630615 151.753143,330.630615 
	C151.900986,330.204346 152.048828,329.778046 152.196655,329.351776 
	C150.354355,328.314087 148.248001,327.556335 146.754959,326.148285 
	C145.602585,325.061493 144.231750,322.630798 144.710815,321.734375 
	C145.572968,320.121185 147.608276,318.594269 149.416397,318.180664 
	C151.196533,317.773438 153.310257,318.764771 155.240204,319.282013 
	C155.320450,319.303558 155.020874,320.742188 154.884811,321.606018 
	C152.718216,321.606018 150.756882,321.606018 148.795547,321.606018 
	C148.698349,321.987396 148.601151,322.368805 148.503952,322.750183 
	C150.019882,323.487274 151.846542,323.914062 152.971893,325.041138 
	C154.332703,326.403961 155.930145,328.395416 155.859039,330.047455 
	C155.802902,331.351959 153.490280,333.413452 151.981293,333.609314 
	C149.465836,333.935760 146.791550,333.038574 144.184677,332.259705 
z"/>
<path fill="#FE1818" opacity="1.000000" stroke="none" 
	d="
M129.920776,316.908447 
	C131.238052,318.005798 132.549561,318.679626 133.861069,319.353455 
	C132.711761,320.182129 131.562454,321.010803 129.872421,322.229370 
	C130.247330,325.335815 127.364723,330.327454 134.382690,332.591919 
	C133.151123,333.075073 131.731064,334.195190 130.730133,333.899017 
	C129.032486,333.396637 127.106476,332.315918 126.195068,330.890808 
	C125.303665,329.496979 125.636322,327.354431 125.292542,325.567261 
	C124.905098,323.553162 124.362244,321.568970 123.709358,318.825287 
	C124.060188,318.266571 124.864143,316.793854 125.860909,315.465881 
	C126.535629,314.566956 127.481514,313.871521 128.306107,313.085083 
	C128.842422,314.218353 129.378723,315.351654 129.920776,316.908447 
z"/>
<path fill="#1B7FC6" opacity="1.000000" stroke="none" 
	d="
M78.777596,327.984314 
	C75.165260,330.034637 71.861626,331.933075 68.569794,333.824707 
	C66.777748,331.269623 66.777748,331.269623 74.845039,326.322815 
	C74.009926,322.386780 66.346413,324.492218 67.455559,317.554199 
	C71.700859,319.976959 75.339302,321.862579 78.711296,324.142334 
	C79.367813,324.586212 78.988068,326.562805 78.777596,327.984314 
z"/>
<path fill="#1B7EC6" opacity="1.000000" stroke="none" 
	d="
M47.770470,331.142761 
	C45.089741,329.552002 42.730297,328.129272 39.101952,325.941376 
	C44.221378,322.940796 48.352757,320.519318 52.487064,318.096130 
	C54.193604,320.795135 54.193604,320.795135 45.283821,326.158722 
	C47.606281,327.330811 49.499725,328.373962 51.465763,329.255127 
	C53.635548,330.227570 55.561413,331.153351 52.697449,333.918884 
	C51.184052,333.061890 49.637905,332.186340 47.770470,331.142761 
z"/>
<path fill="#1B7EC6" opacity="1.000000" stroke="none" 
	d="
M62.267029,310.200500 
	C63.312565,310.621216 64.668983,311.359924 64.578613,311.804657 
	C62.832439,320.397980 60.958237,328.966522 58.963177,337.505798 
	C58.791042,338.242584 57.588577,338.738647 56.864719,339.346527 
	C56.486580,339.126923 56.108437,338.907318 55.730297,338.687744 
	C57.788311,329.252350 59.846321,319.816986 62.267029,310.200500 
z"/>
<path fill="#FE1414" opacity="1.000000" stroke="none" 
	d="
M137.716278,316.973389 
	C137.445114,315.512634 136.505096,314.157257 136.857910,313.423462 
	C137.500458,312.087128 138.910156,311.119629 139.999771,309.998230 
	C140.833435,311.197296 142.622314,312.752075 142.331711,313.532501 
	C141.207413,316.551971 139.420303,319.324615 137.880081,322.189209 
	C137.254684,321.889160 136.629288,321.589081 136.003891,321.289032 
	C136.546051,319.979034 137.088196,318.669067 137.716278,316.973389 
z"/>
<path fill="#F5F5F5" opacity="1.000000" stroke="none" 
	d="
M61.862095,253.866119 
	C79.899582,201.985474 97.878265,150.503189 115.613701,98.937248 
	C117.605934,93.144806 120.580444,89.687721 126.855179,89.719589 
	C138.164169,89.777031 149.475281,89.765938 160.780701,90.007965 
	C165.213379,90.102859 168.006866,92.603645 169.508041,96.922630 
	C189.283096,153.816772 209.183792,210.667282 228.922668,267.573944 
	C232.964630,279.226807 231.344131,281.454926 219.027252,281.706055 
	C211.714371,281.855194 204.388519,281.348022 197.068054,281.152985 
	C193.028015,281.045349 190.778015,278.971252 189.549408,275.136200 
	C186.099731,264.368225 182.444550,253.665939 178.846512,242.945755 
	C178.219070,241.076309 177.475327,239.245880 176.745056,237.289597 
	C153.855331,237.289597 131.197601,237.347824 108.540970,237.216827 
	C105.668671,237.200211 104.849998,238.661087 104.150948,240.844681 
	C100.754951,251.452591 97.124474,261.990814 93.991287,272.675232 
	C92.370659,278.201721 89.426872,281.387115 83.517639,281.348389 
	C76.040428,281.299408 68.545280,281.516785 61.092571,281.056946 
	C56.038700,280.745117 54.326103,278.135864 55.667686,273.225922 
	C57.417229,266.822968 59.686153,260.561920 61.862095,253.866119 
M120.146652,188.559387 
	C118.109688,194.815979 116.072723,201.072586 113.981041,207.497269 
	C132.176758,207.497269 149.781174,207.497269 167.967773,207.497269 
	C159.048996,180.720413 150.255630,154.320038 141.462250,127.919662 
	C141.102188,127.927605 140.742111,127.935555 140.382050,127.943497 
	C133.727921,147.901291 127.073784,167.859070 120.146652,188.559387 
z"/>
<path fill="#F3E2E2" opacity="1.000000" stroke="none" 
	d="
M214.330688,323.385254 
	C214.358795,324.640717 214.591400,325.549561 214.318161,326.265320 
	C213.707275,327.865509 212.844330,329.369507 212.084061,330.912689 
	C210.672775,330.063202 208.155136,329.305969 208.074997,328.345428 
	C207.894882,326.186127 208.923889,323.926025 209.460724,321.706940 
	C211.075699,322.121643 212.690659,322.536316 214.330688,323.385254 
z"/>
<path fill="#F2EEEE" opacity="1.000000" stroke="none" 
	d="
M189.070618,323.569733 
	C190.848114,320.969574 193.215363,319.864288 194.821655,322.450348 
	C195.902817,324.190948 196.054382,327.273834 195.277679,329.219696 
	C194.183044,331.962067 190.276993,331.332825 189.198334,328.339508 
	C188.723129,327.020782 189.009094,325.427734 189.070618,323.569733 
z"/>
<path fill="#383838" opacity="1.000000" stroke="none" 
	d="
M120.283157,188.188126 
	C127.073784,167.859070 133.727921,147.901291 140.382050,127.943497 
	C140.742111,127.935555 141.102188,127.927605 141.462250,127.919662 
	C150.255630,154.320038 159.048996,180.720413 167.967773,207.497269 
	C149.781174,207.497269 132.176758,207.497269 113.981041,207.497269 
	C116.072723,201.072586 118.109688,194.815979 120.283157,188.188126 
z"/>
</svg>