<svg xmlns="http://www.w3.org/2000/svg" xmlns:xlink="http://www.w3.org/1999/xlink" version="1.1" width="1000" height="1000" viewBox="0 0 1000 1000" xml:space="preserve">
<desc>Created with Fabric.js 3.5.0</desc>
<defs>
</defs>
<rect x="0" y="0" width="100%" height="100%" fill="#ffffff"/>
<g transform="matrix(3.6475 0 0 2.5357 487.7276 495.4018)" id="148798">
<g style="" vector-effect="non-scaling-stroke">
		<g transform="matrix(1 0 0 1 1 1)" id="Layer_1">
<path style="stroke: none; stroke-width: 1; stroke-dasharray: none; stroke-linecap: butt; stroke-dashoffset: 0; stroke-linejoin: miter; stroke-miterlimit: 4; is-custom-font: none; font-file-url: none; fill: rgb(242,242,242); fill-rule: nonzero; opacity: 1;" transform=" translate(-138.5, -200)" d="M 124 399 C 82.666672 399 41.833347 399 1.000016 399 C 1.000011 266.333374 1.000011 133.666733 1.000005 1.00007 C 92.666618 1.000046 184.333237 1.000046 275.999878 1.000023 C 275.999939 133.666595 275.999939 266.333191 275.999969 398.999878 C 225.5 399 175 399 124 399 M 221.486893 285.003265 C 225.637253 285.003265 229.787598 285.003265 234.193115 285.003265 C 234.193115 207.609543 234.193115 130.520248 234.193115 53.269455 C 173.283478 53.269455 112.561211 53.269455 51.727283 53.269455 C 51.727283 130.610535 51.727283 207.678452 51.727283 285.003265 C 108.192528 285.003265 164.342209 285.003265 221.486893 285.003265 M 55.870934 359.970459 C 54.427643 360.092621 52.984352 360.214813 51.541061 360.336975 C 51.59145 360.704346 51.641834 361.071716 51.692219 361.439087 C 112.53299 361.439087 173.373749 361.439087 234.214523 361.439087 C 234.215744 360.949554 234.216949 360.459991 234.21817 359.970459 C 175.077271 359.970459 115.936371 359.970459 55.870934 359.970459 M 209.95578 317.959503 C 204.91745 318.66333 203.000748 321.867706 202.944855 326.625763 C 202.902878 330.198395 204.36348 333.118591 207.869629 333.719482 C 211.403046 334.325012 215.12117 333.852783 218.658386 333.852783 C 218.658386 325.652557 218.658386 318.055878 218.658386 310.235596 C 217.066727 310.235596 215.6987 310.235596 214.086029 310.235596 C 214.086029 312.136841 213.920715 313.7883 214.122208 315.393677 C 214.483795 318.274597 212.813965 318.255371 209.95578 317.959503 M 106.991562 329.363892 C 109.979813 333.655701 114.306343 335.354187 118.958763 333.714264 C 119.944511 333.366821 120.525978 331.872406 121.293709 330.906433 C 116.813545 331.154877 113.243912 331.8591 110.582802 326.721924 C 114.809113 326.721924 118.058861 326.721924 121.276657 326.721924 C 121.59568 319.453308 116.81234 315.829468 110.985443 318.650574 C 106.818069 320.668152 105.651573 324.252563 106.991562 329.363892 M 226.480972 333.518677 C 233.945343 334.761871 235.522705 334.216034 235.548965 330.316559 C 231.994415 330.838196 228.091904 332.305145 225.941528 326.807556 C 229.6884 326.807556 232.935577 326.807556 236.131409 326.807556 C 236.707336 320.738129 234.834854 318.190002 230.012711 317.968353 C 226.089279 317.788025 223.176453 319.383759 221.912125 323.14032 C 220.47525 327.409546 221.503601 330.961639 226.480972 333.518677 M 184.109802 324.879669 C 184.29097 331.365784 187.276581 334.436646 193.002548 334.026428 C 198.132309 333.658936 201.584442 329.55307 200.858154 324.553833 C 200.313965 320.808105 198.00145 318.572113 194.329071 318.082703 C 189.486786 317.437378 185.908051 319.261932 184.109802 324.879669 M 173.006348 316.533295 C 175.588303 315.955322 178.170258 315.37738 181.799835 314.564941 C 180.833939 313.648804 180.064941 312.27594 179.067719 312.083069 C 174.293549 311.159576 169.403931 313.5 167.219696 317.667847 C 164.939117 322.019501 165.022141 326.406586 168.180374 330.299591 C 171.396057 334.263397 175.962158 334.473602 180.527512 333.760437 C 181.354233 333.631287 181.934143 331.922089 181.895172 331.977112 C 178.311996 330.488892 174.445862 329.946533 172.311295 327.733765 C 169.49469 324.813995 170.042755 320.641205 173.006348 316.533295 M 91.323196 322.514191 C 91.323196 326.277527 91.323196 330.040863 91.323196 333.876434 C 96.321198 333.876434 100.615707 333.876434 105.103523 333.876434 C 105.157135 333.098816 105.30291 331.938232 105.228653 331.923981 C 102.210228 331.344666 99.171974 330.868652 95.782852 330.322571 C 95.782852 324.232819 95.782852 318.151154 95.782852 312.217041 C 92.520432 311.424683 90.931236 312.184875 91.285828 315.549652 C 91.494148 317.526428 91.323502 319.543152 91.323196 322.514191 M 144.184143 332.656616 C 146.79155 333.038574 149.465836 333.93576 151.981293 333.609314 C 153.49028 333.413452 155.802902 331.351959 155.859039 330.047455 C 155.930145 328.395416 154.332703 326.403961 152.971893 325.041138 C 151.846542 323.914062 150.019882 323.487274 148.503952 322.750183 C 148.601151 322.368805 148.698349 321.987396 148.795547 321.606018 C 150.756882 321.606018 152.718216 321.606018 154.884811 321.606018 C 155.020874 320.742188 155.32045 319.303558 155.240204 319.282013 C 153.310257 318.764771 151.196533 317.773438 149.416397 318.180664 C 147.608276 318.594269 145.572968 320.121185 144.710815 321.734375 C 144.23175 322.630798 145.602585 325.061493 146.754959 326.148285 C 148.248001 327.556335 150.354355 328.314087 152.196655 329.351776 C 152.048828 329.778046 151.900986 330.204346 151.753143 330.630615 C 150.040344 330.630615 148.313141 330.499603 146.620865 330.685913 C 145.776016 330.778931 144.995071 331.452057 144.184143 332.656616 M 129.915039 316.484924 C 129.378723 315.351654 128.842422 314.218353 128.306107 313.085083 C 127.481514 313.871521 126.535629 314.566956 125.860909 315.465881 C 124.864143 316.793854 124.060188 318.266571 123.709358 318.825287 C 124.362244 321.56897 124.905098 323.553162 125.292542 325.567261 C 125.636322 327.354431 125.303665 329.496979 126.195068 330.890808 C 127.106476 332.315918 129.032486 333.396637 130.730133 333.899017 C 131.731064 334.19519 133.151123 333.075073 134.38269 332.591919 C 127.364723 330.327454 130.24733 325.335815 129.872421 322.22937 C 131.562454 321.010803 132.711761 320.182129 133.861069 319.353455 C 132.549561 318.679626 131.238052 318.005798 129.915039 316.484924 M 79.086296 327.832428 C 78.988068 326.562805 79.367813 324.586212 78.711296 324.142334 C 75.339302 321.862579 71.700859 319.976959 67.455559 317.554199 C 66.346413 324.492218 74.009926 322.38678 74.845016 326.322845 C 66.777748 331.269623 66.777748 331.269623 68.569794 333.824707 C 71.861626 331.933075 75.16526 330.034637 79.086296 327.832428 M 48.091759 331.310791 C 49.637905 332.18634 51.184052 333.06189 52.697449 333.918884 C 55.561413 331.153351 53.635548 330.22757 51.465763 329.255127 C 49.499725 328.373962 47.606281 327.330811 45.283821 326.158722 C 54.193604 320.795135 54.193604 320.795135 52.487064 318.09613 C 48.352757 320.519318 44.221378 322.940796 39.101952 325.941376 C 42.730297 328.129272 45.089741 329.552002 48.091759 331.310791 M 61.904335 310.381622 C 59.846321 319.816986 57.788311 329.25235 55.730297 338.687744 C 56.108437 338.907318 56.48658 339.126923 56.864719 339.346527 C 57.588577 338.738647 58.791042 338.242584 58.963177 337.505798 C 60.958237 328.966522 62.832439 320.39798 64.578613 311.804657 C 64.668983 311.359924 63.312565 310.621216 61.904335 310.381622 M 137.630356 317.35907 C 137.088196 318.669067 136.546051 319.979034 136.003891 321.289032 C 136.629288 321.589081 137.254684 321.88916 137.880081 322.189209 C 139.420303 319.324615 141.207413 316.551971 142.331711 313.532501 C 142.622314 312.752075 140.833435 311.197296 139.999771 309.99823 C 138.910156 311.119629 137.500458 312.087128 136.85791 313.423462 C 136.505096 314.157257 137.445114 315.512634 137.630356 317.35907 z" stroke-linecap="round"/>
</g>
		<g transform="matrix(1 0 0 1 5.4602 -29.8636)" id="Layer_1">
<path style="stroke: none; stroke-width: 1; stroke-dasharray: none; stroke-linecap: butt; stroke-dashoffset: 0; stroke-linejoin: miter; stroke-miterlimit: 4; is-custom-font: none; font-file-url: none; fill: rgb(54,54,54); fill-rule: nonzero; opacity: 1;" transform=" translate(-142.9602, -169.1364)" d="M 220.98938 285.003265 C 164.342209 285.003265 108.192528 285.003265 51.727283 285.003265 C 51.727283 207.678452 51.727283 130.610535 51.727283 53.269455 C 112.561211 53.269455 173.283478 53.269455 234.193115 53.269455 C 234.193115 130.520248 234.193115 207.609543 234.193115 285.003265 C 229.787598 285.003265 225.637253 285.003265 220.98938 285.003265 M 61.731594 254.239807 C 59.686153 260.56192 57.417229 266.822968 55.667686 273.225922 C 54.326103 278.135864 56.0387 280.745117 61.092571 281.056946 C 68.54528 281.516785 76.040428 281.299408 83.517639 281.348389 C 89.426872 281.387115 92.370659 278.201721 93.991287 272.675232 C 97.124474 261.990814 100.754951 251.452591 104.150948 240.844681 C 104.849998 238.661087 105.668671 237.200211 108.54097 237.216827 C 131.197601 237.347824 153.855331 237.289597 176.745056 237.289597 C 177.475327 239.24588 178.21907 241.076309 178.846512 242.945755 C 182.44455 253.665939 186.099731 264.368225 189.549408 275.1362 C 190.778015 278.971252 193.028015 281.045349 197.068054 281.152985 C 204.388519 281.348022 211.714371 281.855194 219.027252 281.706055 C 231.344131 281.454926 232.96463 279.226807 228.922668 267.573944 C 209.183792 210.667282 189.283096 153.816772 169.508041 96.92263 C 168.006866 92.603645 165.213379 90.102859 160.780701 90.007965 C 149.475281 89.765938 138.164169 89.777031 126.855179 89.719589 C 120.580444 89.687721 117.605934 93.144806 115.613701 98.937248 C 97.878265 150.503189 79.899582 201.985474 61.731594 254.239807 z" stroke-linecap="round"/>
</g>
		<g transform="matrix(1 0 0 1 5.3797 161.7048)" id="Layer_1">
<path style="stroke: none; stroke-width: 1; stroke-dasharray: none; stroke-linecap: butt; stroke-dashoffset: 0; stroke-linejoin: miter; stroke-miterlimit: 4; is-custom-font: none; font-file-url: none; fill: rgb(64,64,64); fill-rule: nonzero; opacity: 1;" transform=" translate(-142.8796, -360.7048)" d="M 56.333199 359.970459 C 115.936371 359.970459 175.077271 359.970459 234.21817 359.970459 C 234.216949 360.459991 234.215744 360.949554 234.214523 361.439087 C 173.373749 361.439087 112.53299 361.439087 51.692219 361.439087 C 51.641834 361.071716 51.59145 360.704346 51.541061 360.336975 C 52.984352 360.214813 54.427643 360.092621 56.333199 359.970459 z" stroke-linecap="round"/>
</g>
		<g transform="matrix(1 0 0 1 73.3012 123.1319)" id="Layer_1">
<path style="stroke: none; stroke-width: 1; stroke-dasharray: none; stroke-linecap: butt; stroke-dashoffset: 0; stroke-linejoin: miter; stroke-miterlimit: 4; is-custom-font: none; font-file-url: none; fill: rgb(254,23,23); fill-rule: nonzero; opacity: 1;" transform=" translate(-210.8012, -322.1319)" d="M 210.389557 317.957764 C 212.813965 318.255371 214.483795 318.274597 214.122208 315.393677 C 213.920715 313.7883 214.086029 312.136841 214.086029 310.235596 C 215.6987 310.235596 217.066727 310.235596 218.658386 310.235596 C 218.658386 318.055878 218.658386 325.652557 218.658386 333.852783 C 215.12117 333.852783 211.403046 334.325012 207.869629 333.719482 C 204.36348 333.118591 202.902878 330.198395 202.944855 326.625763 C 203.000748 321.867706 204.91745 318.66333 210.389557 317.957764 M 214.305634 322.950989 C 212.690659 322.536316 211.075699 322.121643 209.460724 321.70694 C 208.923889 323.926025 207.894882 326.186127 208.074997 328.345428 C 208.155136 329.305969 210.672775 330.063202 212.084061 330.912689 C 212.84433 329.369507 213.707275 327.865509 214.318161 326.26532 C 214.5914 325.549561 214.358795 324.640717 214.305634 322.950989 z" stroke-linecap="round"/>
</g>
		<g transform="matrix(1 0 0 1 -23.6501 127.0086)" id="Layer_1">
<path style="stroke: none; stroke-width: 1; stroke-dasharray: none; stroke-linecap: butt; stroke-dashoffset: 0; stroke-linejoin: miter; stroke-miterlimit: 4; is-custom-font: none; font-file-url: none; fill: rgb(254,17,17); fill-rule: nonzero; opacity: 1;" transform=" translate(-113.8499, -326.0085)" d="M 106.853912 329.006561 C 105.651573 324.252563 106.818069 320.668152 110.985443 318.650574 C 116.81234 315.829468 121.59568 319.453308 121.276657 326.721924 C 118.058861 326.721924 114.809113 326.721924 110.582802 326.721924 C 113.243912 331.8591 116.813545 331.154877 121.293709 330.906433 C 120.525978 331.872406 119.944511 333.366821 118.958763 333.714264 C 114.306343 335.354187 109.979813 333.655701 106.853912 329.006561 z" stroke-linecap="round"/>
</g>
		<g transform="matrix(1 0 0 1 91.2707 127.0057)" id="Layer_1">
<path style="stroke: none; stroke-width: 1; stroke-dasharray: none; stroke-linecap: butt; stroke-dashoffset: 0; stroke-linejoin: miter; stroke-miterlimit: 4; is-custom-font: none; font-file-url: none; fill: rgb(254,17,17); fill-rule: nonzero; opacity: 1;" transform=" translate(-228.7707, -326.0056)" d="M 226.114349 333.34436 C 221.503601 330.961639 220.47525 327.409546 221.912125 323.14032 C 223.176453 319.383759 226.089279 317.788025 230.012711 317.968353 C 234.834854 318.190002 236.707336 320.738129 236.131409 326.807556 C 232.935577 326.807556 229.6884 326.807556 225.941528 326.807556 C 228.091904 332.305145 231.994415 330.838196 235.548965 330.316559 C 235.522705 334.216034 233.945343 334.761871 226.114349 333.34436 z" stroke-linecap="round"/>
</g>
		<g transform="matrix(1 0 0 1 55.062 127.0105)" id="Layer_1">
<path style="stroke: none; stroke-width: 1; stroke-dasharray: none; stroke-linecap: butt; stroke-dashoffset: 0; stroke-linejoin: miter; stroke-miterlimit: 4; is-custom-font: none; font-file-url: none; fill: rgb(254,23,23); fill-rule: nonzero; opacity: 1;" transform=" translate(-192.562, -326.0104)" d="M 184.169464 324.489624 C 185.908051 319.261932 189.486786 317.437378 194.329071 318.082703 C 198.00145 318.572113 200.313965 320.808105 200.858154 324.553833 C 201.584442 329.55307 198.132309 333.658936 193.002548 334.026428 C 187.276581 334.436646 184.29097 331.365784 184.169464 324.489624 M 188.949463 323.959229 C 189.009094 325.427734 188.723129 327.020782 189.198334 328.339508 C 190.276993 331.332825 194.183044 331.962067 195.277679 329.219696 C 196.054382 327.273834 195.902817 324.190948 194.821655 322.450348 C 193.215363 319.864288 190.848114 320.969574 188.949463 323.959229 z" stroke-linecap="round"/>
</g>
		<g transform="matrix(1 0 0 1 36.2693 123.9816)" id="Layer_1">
<path style="stroke: none; stroke-width: 1; stroke-dasharray: none; stroke-linecap: butt; stroke-dashoffset: 0; stroke-linejoin: miter; stroke-miterlimit: 4; is-custom-font: none; font-file-url: none; fill: rgb(254,16,16); fill-rule: nonzero; opacity: 1;" transform=" translate(-173.7693, -322.9817)" d="M 172.718246 316.817169 C 170.042755 320.641205 169.49469 324.813995 172.311295 327.733765 C 174.445862 329.946533 178.311996 330.488892 181.895172 331.977112 C 181.934143 331.922089 181.354233 333.631287 180.527512 333.760437 C 175.962158 334.473602 171.396057 334.263397 168.180374 330.299591 C 165.022141 326.406586 164.939117 322.019501 167.219696 317.667847 C 169.403931 313.5 174.293549 311.159576 179.067719 312.083069 C 180.064941 312.27594 180.833939 313.648804 181.799835 314.564941 C 178.170258 315.37738 175.588303 315.955322 172.718246 316.817169 z" stroke-linecap="round"/>
</g>
		<g transform="matrix(1 0 0 1 -39.2568 123.9029)" id="Layer_1">
<path style="stroke: none; stroke-width: 1; stroke-dasharray: none; stroke-linecap: butt; stroke-dashoffset: 0; stroke-linejoin: miter; stroke-miterlimit: 4; is-custom-font: none; font-file-url: none; fill: rgb(254,21,21); fill-rule: nonzero; opacity: 1;" transform=" translate(-98.2432, -322.9029)" d="M 91.323257 322.028046 C 91.323502 319.543152 91.494148 317.526428 91.285828 315.549652 C 90.931236 312.184875 92.520432 311.424683 95.782852 312.217041 C 95.782852 318.151154 95.782852 324.232819 95.782852 330.322571 C 99.171974 330.868652 102.210228 331.344666 105.228653 331.923981 C 105.30291 331.938232 105.157135 333.098816 105.103523 333.876434 C 100.615707 333.876434 96.321198 333.876434 91.323196 333.876434 C 91.323196 330.040863 91.323196 326.277527 91.323257 322.028046 z" stroke-linecap="round"/>
</g>
		<g transform="matrix(1 0 0 1 12.523 126.8816)" id="Layer_1">
<path style="stroke: none; stroke-width: 1; stroke-dasharray: none; stroke-linecap: butt; stroke-dashoffset: 0; stroke-linejoin: miter; stroke-miterlimit: 4; is-custom-font: none; font-file-url: none; fill: rgb(254,19,19); fill-rule: nonzero; opacity: 1;" transform=" translate(-150.023, -325.8816)" d="M 144.184677 332.259705 C 144.995071 331.452057 145.776016 330.778931 146.620865 330.685913 C 148.313141 330.499603 150.040344 330.630615 151.753143 330.630615 C 151.900986 330.204346 152.048828 329.778046 152.196655 329.351776 C 150.354355 328.314087 148.248001 327.556335 146.754959 326.148285 C 145.602585 325.061493 144.23175 322.630798 144.710815 321.734375 C 145.572968 320.121185 147.608276 318.594269 149.416397 318.180664 C 151.196533 317.773438 153.310257 318.764771 155.240204 319.282013 C 155.32045 319.303558 155.020874 320.742188 154.884811 321.606018 C 152.718216 321.606018 150.756882 321.606018 148.795547 321.606018 C 148.698349 321.987396 148.601151 322.368805 148.503952 322.750183 C 150.019882 323.487274 151.846542 323.914062 152.971893 325.041138 C 154.332703 326.403961 155.930145 328.395416 155.859039 330.047455 C 155.802902 331.351959 153.49028 333.413452 151.981293 333.609314 C 149.465836 333.93576 146.79155 333.038574 144.184677 332.259705 z" stroke-linecap="round"/>
</g>
		<g transform="matrix(1 0 0 1 -8.4539 124.5166)" id="Layer_1">
<path style="stroke: none; stroke-width: 1; stroke-dasharray: none; stroke-linecap: butt; stroke-dashoffset: 0; stroke-linejoin: miter; stroke-miterlimit: 4; is-custom-font: none; font-file-url: none; fill: rgb(254,24,24); fill-rule: nonzero; opacity: 1;" transform=" translate(-129.046, -323.5166)" d="M 129.920776 316.908447 C 131.238052 318.005798 132.549561 318.679626 133.861069 319.353455 C 132.711761 320.182129 131.562454 321.010803 129.872421 322.22937 C 130.24733 325.335815 127.364723 330.327454 134.38269 332.591919 C 133.151123 333.075073 131.731064 334.19519 130.730133 333.899017 C 129.032486 333.396637 127.106476 332.315918 126.195068 330.890808 C 125.303665 329.496979 125.636322 327.354431 125.292542 325.567261 C 124.905098 323.553162 124.362244 321.56897 123.709358 318.825287 C 124.060188 318.266571 124.864143 316.793854 125.860909 315.465881 C 126.535629 314.566956 127.481514 313.871521 128.306107 313.085083 C 128.842422 314.218353 129.378723 315.351654 129.920776 316.908447 z" stroke-linecap="round"/>
</g>
		<g transform="matrix(1 0 0 1 -64.2872 126.6895)" id="Layer_1">
<path style="stroke: none; stroke-width: 1; stroke-dasharray: none; stroke-linecap: butt; stroke-dashoffset: 0; stroke-linejoin: miter; stroke-miterlimit: 4; is-custom-font: none; font-file-url: none; fill: rgb(27,127,198); fill-rule: nonzero; opacity: 1;" transform=" translate(-73.2128, -325.6895)" d="M 78.777596 327.984314 C 75.16526 330.034637 71.861626 331.933075 68.569794 333.824707 C 66.777748 331.269623 66.777748 331.269623 74.845039 326.322815 C 74.009926 322.38678 66.346413 324.492218 67.455559 317.554199 C 71.700859 319.976959 75.339302 321.862579 78.711296 324.142334 C 79.367813 324.586212 78.988068 326.562805 78.777596 327.984314 z" stroke-linecap="round"/>
</g>
		<g transform="matrix(1 0 0 1 -90.8788 127.0075)" id="Layer_1">
<path style="stroke: none; stroke-width: 1; stroke-dasharray: none; stroke-linecap: butt; stroke-dashoffset: 0; stroke-linejoin: miter; stroke-miterlimit: 4; is-custom-font: none; font-file-url: none; fill: rgb(27,126,198); fill-rule: nonzero; opacity: 1;" transform=" translate(-46.6211, -326.0075)" d="M 47.77047 331.142761 C 45.089741 329.552002 42.730297 328.129272 39.101952 325.941376 C 44.221378 322.940796 48.352757 320.519318 52.487064 318.09613 C 54.193604 320.795135 54.193604 320.795135 45.283821 326.158722 C 47.606281 327.330811 49.499725 328.373962 51.465763 329.255127 C 53.635548 330.22757 55.561413 331.153351 52.697449 333.918884 C 51.184052 333.06189 49.637905 332.18634 47.77047 331.142761 z" stroke-linecap="round"/>
</g>
		<g transform="matrix(1 0 0 1 -77.3434 125.7735)" id="Layer_1">
<path style="stroke: none; stroke-width: 1; stroke-dasharray: none; stroke-linecap: butt; stroke-dashoffset: 0; stroke-linejoin: miter; stroke-miterlimit: 4; is-custom-font: none; font-file-url: none; fill: rgb(27,126,198); fill-rule: nonzero; opacity: 1;" transform=" translate(-60.1566, -324.7735)" d="M 62.267029 310.2005 C 63.312565 310.621216 64.668983 311.359924 64.578613 311.804657 C 62.832439 320.39798 60.958237 328.966522 58.963177 337.505798 C 58.791042 338.242584 57.588577 338.738647 56.864719 339.346527 C 56.48658 339.126923 56.108437 338.907318 55.730297 338.687744 C 57.788311 329.25235 59.846321 319.816986 62.267029 310.2005 z" stroke-linecap="round"/>
</g>
		<g transform="matrix(1 0 0 1 1.6836 117.0937)" id="Layer_1">
<path style="stroke: none; stroke-width: 1; stroke-dasharray: none; stroke-linecap: butt; stroke-dashoffset: 0; stroke-linejoin: miter; stroke-miterlimit: 4; is-custom-font: none; font-file-url: none; fill: rgb(254,20,20); fill-rule: nonzero; opacity: 1;" transform=" translate(-139.1836, -316.0937)" d="M 137.716278 316.973389 C 137.445114 315.512634 136.505096 314.157257 136.85791 313.423462 C 137.500458 312.087128 138.910156 311.119629 139.999771 309.99823 C 140.833435 311.197296 142.622314 312.752075 142.331711 313.532501 C 141.207413 316.551971 139.420303 319.324615 137.880081 322.189209 C 137.254684 321.88916 136.629288 321.589081 136.003891 321.289032 C 136.546051 319.979034 137.088196 318.669067 137.716278 316.973389 z" stroke-linecap="round"/>
</g>
		<g transform="matrix(1 0 0 1 5.5641 -13.2737)" id="Layer_1">
<path style="stroke: none; stroke-width: 1; stroke-dasharray: none; stroke-linecap: butt; stroke-dashoffset: 0; stroke-linejoin: miter; stroke-miterlimit: 4; is-custom-font: none; font-file-url: none; fill: rgb(245,245,245); fill-rule: nonzero; opacity: 1;" transform=" translate(-143.0641, -185.7262)" d="M 61.862095 253.866119 C 79.899582 201.985474 97.878265 150.503189 115.613701 98.937248 C 117.605934 93.144806 120.580444 89.687721 126.855179 89.719589 C 138.164169 89.777031 149.475281 89.765938 160.780701 90.007965 C 165.213379 90.102859 168.006866 92.603645 169.508041 96.92263 C 189.283096 153.816772 209.183792 210.667282 228.922668 267.573944 C 232.96463 279.226807 231.344131 281.454926 219.027252 281.706055 C 211.714371 281.855194 204.388519 281.348022 197.068054 281.152985 C 193.028015 281.045349 190.778015 278.971252 189.549408 275.1362 C 186.099731 264.368225 182.44455 253.665939 178.846512 242.945755 C 178.21907 241.076309 177.475327 239.24588 176.745056 237.289597 C 153.855331 237.289597 131.197601 237.347824 108.54097 237.216827 C 105.668671 237.200211 104.849998 238.661087 104.150948 240.844681 C 100.754951 251.452591 97.124474 261.990814 93.991287 272.675232 C 92.370659 278.201721 89.426872 281.387115 83.517639 281.348389 C 76.040428 281.299408 68.54528 281.516785 61.092571 281.056946 C 56.0387 280.745117 54.326103 278.135864 55.667686 273.225922 C 57.417229 266.822968 59.686153 260.56192 61.862095 253.866119 M 120.146652 188.559387 C 118.109688 194.815979 116.072723 201.072586 113.981041 207.497269 C 132.176758 207.497269 149.781174 207.497269 167.967773 207.497269 C 159.048996 180.720413 150.25563 154.320038 141.46225 127.919662 C 141.102188 127.927605 140.742111 127.935555 140.38205 127.943497 C 133.727921 147.901291 127.073784 167.85907 120.146652 188.559387 z" stroke-linecap="round"/>
</g>
		<g transform="matrix(1 0 0 1 73.7519 127.3098)" id="Layer_1">
<path style="stroke: none; stroke-width: 1; stroke-dasharray: none; stroke-linecap: butt; stroke-dashoffset: 0; stroke-linejoin: miter; stroke-miterlimit: 4; is-custom-font: none; font-file-url: none; fill: rgb(243,226,226); fill-rule: nonzero; opacity: 1;" transform=" translate(-211.2519, -326.3098)" d="M 214.330688 323.385254 C 214.358795 324.640717 214.5914 325.549561 214.318161 326.26532 C 213.707275 327.865509 212.84433 329.369507 212.084061 330.912689 C 210.672775 330.063202 208.155136 329.305969 208.074997 328.345428 C 207.894882 326.186127 208.923889 323.926025 209.460724 321.70694 C 211.075699 322.121643 212.690659 322.536316 214.330688 323.385254 z" stroke-linecap="round"/>
</g>
		<g transform="matrix(1 0 0 1 54.8471 126.9729)" id="Layer_1">
<path style="stroke: none; stroke-width: 1; stroke-dasharray: none; stroke-linecap: butt; stroke-dashoffset: 0; stroke-linejoin: miter; stroke-miterlimit: 4; is-custom-font: none; font-file-url: none; fill: rgb(242,238,238); fill-rule: nonzero; opacity: 1;" transform=" translate(-192.3471, -325.9729)" d="M 189.070618 323.569733 C 190.848114 320.969574 193.215363 319.864288 194.821655 322.450348 C 195.902817 324.190948 196.054382 327.273834 195.277679 329.219696 C 194.183044 331.962067 190.276993 331.332825 189.198334 328.339508 C 188.723129 327.020782 189.009094 325.427734 189.070618 323.569733 z" stroke-linecap="round"/>
</g>
		<g transform="matrix(1 0 0 1 3.4744 -31.2915)" id="Layer_1">
<path style="stroke: none; stroke-width: 1; stroke-dasharray: none; stroke-linecap: butt; stroke-dashoffset: 0; stroke-linejoin: miter; stroke-miterlimit: 4; is-custom-font: none; font-file-url: none; fill: rgb(56,56,56); fill-rule: nonzero; opacity: 1;" transform=" translate(-140.9744, -167.7085)" d="M 120.283157 188.188126 C 127.073784 167.85907 133.727921 147.901291 140.38205 127.943497 C 140.742111 127.935555 141.102188 127.927605 141.46225 127.919662 C 150.25563 154.320038 159.048996 180.720413 167.967773 207.497269 C 149.781174 207.497269 132.176758 207.497269 113.981041 207.497269 C 116.072723 201.072586 118.109688 194.815979 120.283157 188.188126 z" stroke-linecap="round"/>
</g>
</g>
</g>
</svg>