<svg version="1.1" id="Layer_1" xmlns="http://www.w3.org/2000/svg" xmlns:xlink="http://www.w3.org/1999/xlink" x="0px" y="0px"
	 width="100%" viewBox="0 0 559 692" enable-background="new 0 0 559 692" xml:space="preserve">
<path fill="#F2F2F2" opacity="1.000000" stroke="none" 
	d="
M296.000000,693.000000 
	C197.333344,693.000000 99.166702,693.000000 1.000040,693.000000 
	C1.000026,462.333405 1.000026,231.666779 1.000013,1.000132 
	C187.333237,1.000088 373.666473,1.000088 559.999756,1.000044 
	C559.999878,231.666519 559.999878,462.333038 559.999939,692.999756 
	C472.166656,693.000000 384.333344,693.000000 296.000000,693.000000 
M263.500000,49.999477 
	C208.088409,49.999477 152.676804,49.999477 97.399673,49.999477 
	C97.399673,197.750061 97.399673,344.782776 97.399673,491.729980 
	C213.718567,491.729980 329.637115,491.729980 445.688568,491.729980 
	C445.688568,344.426910 445.688568,197.394379 445.688568,49.999477 
	C385.084991,49.999477 324.792511,49.999477 263.500000,49.999477 
M263.500000,636.000061 
	C212.344559,636.000122 161.189117,636.000000 110.033676,636.000183 
	C106.701073,636.000183 103.366158,636.079651 100.036522,635.980713 
	C96.794601,635.884399 96.442177,637.291504 97.550987,639.752808 
	C213.745438,639.752808 329.668884,639.752808 445.645325,639.752808 
	C446.884918,634.590149 443.101288,636.050598 440.961304,636.048401 
	C382.140900,635.988159 323.320465,636.000122 263.500000,636.000061 
M414.307861,542.086914 
	C411.703247,542.086914 409.098633,542.086914 406.402710,542.086914 
	C406.402710,547.074707 406.402710,551.455933 406.402710,555.804321 
	C405.789276,555.883728 405.446899,556.032654 405.179077,555.947388 
	C398.708893,553.887451 393.008179,554.707703 388.726074,560.466614 
	C384.442566,566.227478 383.841217,575.037964 387.329742,580.720215 
	C389.851257,584.827393 393.578888,587.948914 398.379242,586.833130 
	C403.864258,585.558289 409.316132,586.405823 414.891754,585.915894 
	C414.891754,571.371765 414.891754,557.101501 414.307861,542.086914 
M350.348511,577.900269 
	C354.545715,585.930725 362.760681,589.138245 370.919678,585.932251 
	C378.497131,582.954712 382.545044,574.644287 380.535065,566.191772 
	C378.723633,558.574097 371.810181,554.078796 363.413391,555.058838 
	C353.118744,556.260254 347.760345,565.156738 350.348511,577.900269 
M215.000031,586.911133 
	C218.147903,586.826477 221.297638,586.784424 224.443192,586.646851 
	C228.873154,586.453125 229.880035,584.060242 228.760635,580.155579 
	C215.122543,581.811035 211.846237,580.607971 210.057495,572.769897 
	C216.706268,572.769897 223.208145,572.769897 229.617264,572.769897 
	C230.381409,561.152222 226.692398,555.542236 218.455002,555.001526 
	C209.432922,554.409302 203.159027,559.403015 201.650116,568.377441 
	C200.122986,577.460205 204.670883,584.172424 215.000031,586.911133 
M448.000977,583.733826 
	C448.051453,582.628113 448.101929,581.522400 448.153717,580.387939 
	C432.492645,581.038208 430.551300,580.301636 429.167297,572.844849 
	C435.650787,572.844849 442.045837,572.844849 448.349213,572.844849 
	C449.567078,564.144226 447.668915,558.958069 442.574158,556.326355 
	C437.484985,553.697510 429.945831,554.686646 425.746307,558.534119 
	C419.390228,564.357361 418.535767,575.237610 423.931580,581.641296 
	C429.072998,587.743103 441.515961,589.229370 448.000977,583.733826 
M326.111237,554.860779 
	C330.455170,548.728088 336.691437,549.805054 342.889862,550.859253 
	C343.251373,548.731750 343.551147,546.967712 343.927948,544.750366 
	C335.449066,543.115540 327.781616,543.568054 321.357422,549.603638 
	C314.433319,556.108948 312.382721,566.898071 316.238312,575.379272 
	C320.180603,584.051208 327.862457,587.769165 340.067230,586.912170 
	C345.655914,586.519775 345.950562,586.124695 345.013092,580.151184 
	C343.702148,580.339111 342.391327,580.538391 341.077271,580.713684 
	C330.969757,582.061890 323.971313,576.748840 323.484711,566.609192 
	C323.309967,562.967590 324.927094,559.239990 326.111237,554.860779 
M198.839188,581.722229 
	C197.877014,581.044128 196.937210,579.820618 195.948868,579.780090 
	C191.030792,579.578369 186.099915,579.687988 181.060501,579.687988 
	C181.060501,568.105835 181.060501,556.713318 181.060501,545.327515 
	C178.134796,545.327515 175.417892,545.327515 172.723297,545.327515 
	C172.723297,559.026672 172.723297,572.391235 172.723297,586.006592 
	C180.474472,586.006592 187.943848,585.862915 195.402740,586.079834 
	C198.241150,586.162415 198.809158,584.855774 198.839188,581.722229 
M275.791870,569.462830 
	C278.503540,571.031372 281.337341,572.427124 283.884430,574.228394 
	C285.620575,575.456055 286.955750,577.250732 288.470184,578.791931 
	C286.401947,579.521912 284.373230,580.675720 282.255371,580.873108 
	C279.687286,581.112366 277.043945,580.543884 274.282928,580.312317 
	C273.911469,582.205566 273.576019,583.915405 272.940002,587.157043 
	C279.248047,586.688171 284.912994,586.909363 290.187378,585.580505 
	C292.520691,584.992676 295.369843,581.394897 295.614655,578.928223 
	C295.885925,576.195129 293.942902,572.790039 292.027435,570.441467 
	C290.607880,568.700928 287.634003,568.284851 285.459473,567.085022 
	C283.765533,566.150391 282.236267,564.917297 280.633820,563.816833 
	C280.826752,563.209229 281.019653,562.601562 281.212585,561.993896 
	C285.290466,561.993896 289.368317,561.993896 293.644531,561.993896 
	C294.079376,559.746216 294.432861,557.918884 294.962341,555.181885 
	C290.273956,555.181885 286.277618,554.781555 282.393402,555.270935 
	C275.717743,556.112183 271.544281,562.334900 275.791870,569.462830 
M235.011139,563.055664 
	C237.850220,562.620422 237.669098,564.481262 237.756683,566.421936 
	C237.980347,571.377625 237.857132,576.433411 238.853806,581.245850 
	C239.827850,585.949158 244.929367,587.905518 250.613953,586.891479 
	C254.993790,586.110168 253.576752,582.968628 253.746536,580.290283 
	C247.365417,581.575806 245.554245,580.266968 245.306915,574.127991 
	C245.162537,570.544128 245.280609,566.949646 245.280609,563.117004 
	C248.113937,563.117004 250.382477,563.117004 252.882156,563.117004 
	C252.882156,560.932678 252.882156,559.013550 252.882156,556.736206 
	C250.357941,556.736206 247.938812,556.736206 245.356064,556.736206 
	C245.518906,553.338867 245.664688,550.297485 245.830292,546.842590 
	C242.918655,547.310242 240.708160,547.665283 238.591751,548.005249 
	C238.314087,551.362671 238.085297,554.129089 237.862167,556.827209 
	C236.273178,556.973450 235.063782,557.084778 233.519089,557.226990 
	C233.757843,559.453125 233.943939,561.188293 235.011139,563.055664 
M87.247154,567.689148 
	C92.001671,565.086365 96.756187,562.483521 101.626884,559.817139 
	C100.558655,557.527649 99.748360,555.790894 98.851639,553.868958 
	C91.585442,558.301086 84.747414,562.391968 77.997543,566.623535 
	C74.718559,568.679199 74.508217,571.172180 77.537689,573.090515 
	C84.488441,577.491882 91.577469,581.674866 98.997192,586.181458 
	C99.922081,583.904297 100.641029,582.134216 101.478271,580.072876 
	C95.364624,576.719727 89.531242,573.520264 83.242790,570.071289 
	C84.894836,569.034302 85.731232,568.509338 87.247154,567.689148 
M125.949394,579.949768 
	C126.476326,581.902161 127.003258,583.854614 127.674118,586.340271 
	C135.261047,581.694031 142.176086,577.520081 149.023392,573.237732 
	C151.983093,571.386780 152.212006,568.862671 149.315369,566.981262 
	C142.420883,562.503113 135.317764,558.346191 127.851120,553.786072 
	C126.941132,556.048340 126.232155,557.810913 125.405289,559.866577 
	C131.460022,563.253967 137.227463,566.480713 143.677460,570.089233 
	C137.254349,573.562439 131.867493,576.475342 125.949394,579.949768 
M116.003700,542.467468 
	C112.345253,559.800415 108.686813,577.133423 104.979660,594.697144 
	C107.046776,594.697144 108.761848,594.697144 110.102776,594.697144 
	C114.106453,576.711548 118.022095,559.121338 122.109161,540.761108 
	C119.643120,541.129150 117.926712,541.385315 116.003700,542.467468 
M268.388397,552.727844 
	C268.873932,550.976624 269.956024,549.130188 269.695709,547.497925 
	C269.361908,545.404541 268.428558,542.757141 266.850739,541.713989 
	C265.552094,540.855469 262.251678,541.283630 261.084778,542.420715 
	C259.715668,543.754700 258.506439,547.244690 259.294037,548.455078 
	C262.693237,553.678650 259.974274,557.475159 257.152496,561.641113 
	C257.987976,562.410706 258.797241,563.156128 260.228394,564.474426 
	C262.970703,560.620605 265.528564,557.025940 268.388397,552.727844 
z"/>
<path fill="#FF4B4B" opacity="1.000000" stroke="none" 
	d="
M264.000000,49.999477 
	C324.792511,49.999477 385.084991,49.999477 445.688568,49.999477 
	C445.688568,197.394379 445.688568,344.426910 445.688568,491.729980 
	C329.637115,491.729980 213.718567,491.729980 97.399673,491.729980 
	C97.399673,344.782776 97.399673,197.750061 97.399673,49.999477 
	C152.676804,49.999477 208.088409,49.999477 264.000000,49.999477 
M114.176918,440.681946 
	C111.064789,450.508026 107.470177,460.213501 104.975655,470.193970 
	C102.459549,480.260742 106.216560,485.392059 116.592430,485.789429 
	C130.880508,486.336670 145.212479,486.151215 159.513611,485.795807 
	C168.775009,485.565613 174.537979,481.049225 177.362488,471.489838 
	C183.772034,449.796967 191.231659,428.416016 198.055115,406.842072 
	C199.178268,403.290985 200.632309,401.916077 204.570343,401.931091 
	C246.902557,402.092621 289.235687,402.070679 331.568237,401.960144 
	C335.074554,401.950989 336.798157,402.828125 337.957977,406.394226 
	C345.094727,428.337677 352.527802,450.184662 359.843872,472.069916 
	C363.599579,483.304779 366.236359,485.648895 378.094391,485.939819 
	C392.902161,486.303101 407.731689,486.425751 422.537140,486.059296 
	C438.651794,485.660431 442.175110,481.039551 437.178101,465.808960 
	C427.955017,437.697388 418.140778,409.777924 408.413055,381.834045 
	C379.665833,299.254669 350.798401,216.717072 322.114410,134.115768 
	C319.402863,126.307358 314.604553,121.280128 306.378571,121.076149 
	C284.092316,120.523514 261.792450,120.196991 239.500977,120.321373 
	C229.193436,120.378883 223.042755,126.112946 219.867111,136.238831 
	C214.391785,153.697540 207.969742,170.859070 201.959305,188.150299 
	C172.784897,272.081268 143.615250,356.013885 114.176918,440.681946 
z"/>
<path fill="#FF4B4B" opacity="1.000000" stroke="none" 
	d="
M264.000000,636.000061 
	C323.320465,636.000122 382.140900,635.988159 440.961304,636.048401 
	C443.101288,636.050598 446.884918,634.590149 445.645325,639.752808 
	C329.668884,639.752808 213.745438,639.752808 97.550987,639.752808 
	C96.442177,637.291504 96.794601,635.884399 100.036522,635.980713 
	C103.366158,636.079651 106.701073,636.000183 110.033676,636.000183 
	C161.189117,636.000000 212.344559,636.000122 264.000000,636.000061 
z"/>
<path fill="#FE0B0B" opacity="1.000000" stroke="none" 
	d="
M414.599792,542.459106 
	C414.891754,557.101501 414.891754,571.371765 414.891754,585.915894 
	C409.316132,586.405823 403.864258,585.558289 398.379242,586.833130 
	C393.578888,587.948914 389.851257,584.827393 387.329742,580.720215 
	C383.841217,575.037964 384.442566,566.227478 388.726074,560.466614 
	C393.008179,554.707703 398.708893,553.887451 405.179077,555.947388 
	C405.446899,556.032654 405.789276,555.883728 406.402710,555.804321 
	C406.402710,551.455933 406.402710,547.074707 406.402710,542.086914 
	C409.098633,542.086914 411.703247,542.086914 414.599792,542.459106 
M398.394379,580.468933 
	C405.807129,581.695618 407.141418,580.643677 407.126556,573.531189 
	C407.122375,571.532959 407.006378,569.534729 407.011353,567.536682 
	C407.018402,564.694031 407.460358,561.703613 403.356354,561.156921 
	C399.655914,560.664124 396.792297,561.706299 395.019623,565.140747 
	C392.425964,570.165771 393.454193,575.941284 398.394379,580.468933 
z"/>
<path fill="#FF0909" opacity="1.000000" stroke="none" 
	d="
M350.226593,577.527588 
	C347.760345,565.156738 353.118744,556.260254 363.413391,555.058838 
	C371.810181,554.078796 378.723633,558.574097 380.535065,566.191772 
	C382.545044,574.644287 378.497131,582.954712 370.919678,585.932251 
	C362.760681,589.138245 354.545715,585.930725 350.226593,577.527588 
M358.093170,567.195801 
	C358.036072,569.173828 357.714813,571.187683 357.976654,573.122559 
	C358.528748,577.201843 360.454163,580.648743 364.948578,580.872131 
	C369.536469,581.100159 371.648865,577.819214 372.309143,573.682800 
	C372.587158,571.940918 372.514191,570.072937 372.223938,568.324890 
	C371.611816,564.638550 369.803009,561.648499 365.797852,561.120239 
	C361.904175,560.606689 359.732025,563.079956 358.093170,567.195801 
z"/>
<path fill="#FF0909" opacity="1.000000" stroke="none" 
	d="
M214.568542,586.859009 
	C204.670883,584.172424 200.122986,577.460205 201.650116,568.377441 
	C203.159027,559.403015 209.432922,554.409302 218.455002,555.001526 
	C226.692398,555.542236 230.381409,561.152222 229.617264,572.769897 
	C223.208145,572.769897 216.706268,572.769897 210.057495,572.769897 
	C211.846237,580.607971 215.122543,581.811035 228.760635,580.155579 
	C229.880035,584.060242 228.873154,586.453125 224.443192,586.646851 
	C221.297638,586.784424 218.147903,586.826477 214.568542,586.859009 
M211.942932,568.005920 
	C215.315430,568.005920 218.687927,568.005920 222.060425,568.005920 
	C222.380890,567.431091 222.701370,566.856262 223.021851,566.281433 
	C221.606216,564.639832 220.445923,562.081909 218.707825,561.597534 
	C216.706604,561.039856 213.894043,561.831116 212.027527,562.991577 
	C211.049377,563.599670 211.341690,566.251343 211.942932,568.005920 
z"/>
<path fill="#FF0909" opacity="1.000000" stroke="none" 
	d="
M447.960785,584.120239 
	C441.515961,589.229370 429.072998,587.743103 423.931580,581.641296 
	C418.535767,575.237610 419.390228,564.357361 425.746307,558.534119 
	C429.945831,554.686646 437.484985,553.697510 442.574158,556.326355 
	C447.668915,558.958069 449.567078,564.144226 448.349213,572.844849 
	C442.045837,572.844849 435.650787,572.844849 429.167297,572.844849 
	C430.551300,580.301636 432.492645,581.038208 448.153717,580.387939 
	C448.101929,581.522400 448.051453,582.628113 447.960785,584.120239 
M436.330994,561.009583 
	C431.847595,560.974365 429.312317,563.025513 428.994904,567.469238 
	C433.181824,567.469238 437.155792,567.469238 441.129791,567.469238 
	C441.454193,566.953064 441.778595,566.436951 442.102997,565.920776 
	C440.446320,564.328186 438.789673,562.735535 436.330994,561.009583 
z"/>
<path fill="#FF0909" opacity="1.000000" stroke="none" 
	d="
M325.918854,555.206177 
	C324.927094,559.239990 323.309967,562.967590 323.484711,566.609192 
	C323.971313,576.748840 330.969757,582.061890 341.077271,580.713684 
	C342.391327,580.538391 343.702148,580.339111 345.013092,580.151184 
	C345.950562,586.124695 345.655914,586.519775 340.067230,586.912170 
	C327.862457,587.769165 320.180603,584.051208 316.238312,575.379272 
	C312.382721,566.898071 314.433319,556.108948 321.357422,549.603638 
	C327.781616,543.568054 335.449066,543.115540 343.927948,544.750366 
	C343.551147,546.967712 343.251373,548.731750 342.889862,550.859253 
	C336.691437,549.805054 330.455170,548.728088 325.918854,555.206177 
z"/>
<path fill="#FF0404" opacity="1.000000" stroke="none" 
	d="
M198.813599,582.150757 
	C198.809158,584.855774 198.241150,586.162415 195.402740,586.079834 
	C187.943848,585.862915 180.474472,586.006592 172.723297,586.006592 
	C172.723297,572.391235 172.723297,559.026672 172.723297,545.327515 
	C175.417892,545.327515 178.134796,545.327515 181.060501,545.327515 
	C181.060501,556.713318 181.060501,568.105835 181.060501,579.687988 
	C186.099915,579.687988 191.030792,579.578369 195.948868,579.780090 
	C196.937210,579.820618 197.877014,581.044128 198.813599,582.150757 
z"/>
<path fill="#FF0909" opacity="1.000000" stroke="none" 
	d="
M275.549652,569.165405 
	C271.544281,562.334900 275.717743,556.112183 282.393402,555.270935 
	C286.277618,554.781555 290.273956,555.181885 294.962341,555.181885 
	C294.432861,557.918884 294.079376,559.746216 293.644531,561.993896 
	C289.368317,561.993896 285.290466,561.993896 281.212585,561.993896 
	C281.019653,562.601562 280.826752,563.209229 280.633820,563.816833 
	C282.236267,564.917297 283.765533,566.150391 285.459473,567.085022 
	C287.634003,568.284851 290.607880,568.700928 292.027435,570.441467 
	C293.942902,572.790039 295.885925,576.195129 295.614655,578.928223 
	C295.369843,581.394897 292.520691,584.992676 290.187378,585.580505 
	C284.912994,586.909363 279.248047,586.688171 272.940002,587.157043 
	C273.576019,583.915405 273.911469,582.205566 274.282928,580.312317 
	C277.043945,580.543884 279.687286,581.112366 282.255371,580.873108 
	C284.373230,580.675720 286.401947,579.521912 288.470184,578.791931 
	C286.955750,577.250732 285.620575,575.456055 283.884430,574.228394 
	C281.337341,572.427124 278.503540,571.031372 275.549652,569.165405 
z"/>
<path fill="#FF0808" opacity="1.000000" stroke="none" 
	d="
M234.570587,562.989563 
	C233.943939,561.188293 233.757843,559.453125 233.519089,557.226990 
	C235.063782,557.084778 236.273178,556.973450 237.862167,556.827209 
	C238.085297,554.129089 238.314087,551.362671 238.591751,548.005249 
	C240.708160,547.665283 242.918655,547.310242 245.830292,546.842590 
	C245.664688,550.297485 245.518906,553.338867 245.356064,556.736206 
	C247.938812,556.736206 250.357941,556.736206 252.882156,556.736206 
	C252.882156,559.013550 252.882156,560.932678 252.882156,563.117004 
	C250.382477,563.117004 248.113937,563.117004 245.280609,563.117004 
	C245.280609,566.949646 245.162537,570.544128 245.306915,574.127991 
	C245.554245,580.266968 247.365417,581.575806 253.746536,580.290283 
	C253.576752,582.968628 254.993790,586.110168 250.613953,586.891479 
	C244.929367,587.905518 239.827850,585.949158 238.853806,581.245850 
	C237.857132,576.433411 237.980347,571.377625 237.756683,566.421936 
	C237.669098,564.481262 237.850220,562.620422 234.570587,562.989563 
z"/>
<path fill="#0F78C3" opacity="1.000000" stroke="none" 
	d="
M86.907394,567.836731 
	C85.731232,568.509338 84.894836,569.034302 83.242790,570.071289 
	C89.531242,573.520264 95.364624,576.719727 101.478271,580.072876 
	C100.641029,582.134216 99.922081,583.904297 98.997192,586.181458 
	C91.577469,581.674866 84.488441,577.491882 77.537689,573.090515 
	C74.508217,571.172180 74.718559,568.679199 77.997543,566.623535 
	C84.747414,562.391968 91.585442,558.301086 98.851639,553.868958 
	C99.748360,555.790894 100.558655,557.527649 101.626884,559.817139 
	C96.756187,562.483521 92.001671,565.086365 86.907394,567.836731 
z"/>
<path fill="#0D77C3" opacity="1.000000" stroke="none" 
	d="
M126.215027,579.668945 
	C131.867493,576.475342 137.254349,573.562439 143.677460,570.089233 
	C137.227463,566.480713 131.460022,563.253967 125.405289,559.866577 
	C126.232155,557.810913 126.941132,556.048340 127.851120,553.786072 
	C135.317764,558.346191 142.420883,562.503113 149.315369,566.981262 
	C152.212006,568.862671 151.983093,571.386780 149.023392,573.237732 
	C142.176086,577.520081 135.261047,581.694031 127.674118,586.340271 
	C127.003258,583.854614 126.476326,581.902161 126.215027,579.668945 
z"/>
<path fill="#1078C3" opacity="1.000000" stroke="none" 
	d="
M116.106995,542.054443 
	C117.926712,541.385315 119.643120,541.129150 122.109161,540.761108 
	C118.022095,559.121338 114.106453,576.711548 110.102776,594.697144 
	C108.761848,594.697144 107.046776,594.697144 104.979660,594.697144 
	C108.686813,577.133423 112.345253,559.800415 116.106995,542.054443 
z"/>
<path fill="#FE0A0A" opacity="1.000000" stroke="none" 
	d="
M268.237427,553.079590 
	C265.528564,557.025940 262.970703,560.620605 260.228394,564.474426 
	C258.797241,563.156128 257.987976,562.410706 257.152496,561.641113 
	C259.974274,557.475159 262.693237,553.678650 259.294037,548.455078 
	C258.506439,547.244690 259.715668,543.754700 261.084778,542.420715 
	C262.251678,541.283630 265.552094,540.855469 266.850739,541.713989 
	C268.428558,542.757141 269.361908,545.404541 269.695709,547.497925 
	C269.956024,549.130188 268.873932,550.976624 268.237427,553.079590 
z"/>
<path fill="#EAE9E9" opacity="1.000000" stroke="none" 
	d="
M114.310410,440.313934 
	C143.615250,356.013885 172.784897,272.081268 201.959305,188.150299 
	C207.969742,170.859070 214.391785,153.697540 219.867111,136.238831 
	C223.042755,126.112946 229.193436,120.378883 239.500977,120.321373 
	C261.792450,120.196991 284.092316,120.523514 306.378571,121.076149 
	C314.604553,121.280128 319.402863,126.307358 322.114410,134.115768 
	C350.798401,216.717072 379.665833,299.254669 408.413055,381.834045 
	C418.140778,409.777924 427.955017,437.697388 437.178101,465.808960 
	C442.175110,481.039551 438.651794,485.660431 422.537140,486.059296 
	C407.731689,486.425751 392.902161,486.303101 378.094391,485.939819 
	C366.236359,485.648895 363.599579,483.304779 359.843872,472.069916 
	C352.527802,450.184662 345.094727,428.337677 337.957977,406.394226 
	C336.798157,402.828125 335.074554,401.950989 331.568237,401.960144 
	C289.235687,402.070679 246.902557,402.092621 204.570343,401.931091 
	C200.632309,401.916077 199.178268,403.290985 198.055115,406.842072 
	C191.231659,428.416016 183.772034,449.796967 177.362488,471.489838 
	C174.537979,481.049225 168.775009,485.565613 159.513611,485.795807 
	C145.212479,486.151215 130.880508,486.336670 116.592430,485.789429 
	C106.216560,485.392059 102.459549,480.260742 104.975655,470.193970 
	C107.470177,460.213501 111.064789,450.508026 114.310410,440.313934 
M252.345749,235.785553 
	C240.335449,272.019196 228.325165,308.252838 216.223862,344.761017 
	C250.951416,344.761017 284.785950,344.761017 319.070404,344.761017 
	C301.936432,293.311310 284.964783,242.349075 267.577942,190.140060 
	C262.296295,206.037323 257.475616,220.547058 252.345749,235.785553 
z"/>
<path fill="#F2EDED" opacity="1.000000" stroke="none" 
	d="
M398.038208,580.283936 
	C393.454193,575.941284 392.425964,570.165771 395.019623,565.140747 
	C396.792297,561.706299 399.655914,560.664124 403.356354,561.156921 
	C407.460358,561.703613 407.018402,564.694031 407.011353,567.536682 
	C407.006378,569.534729 407.122375,571.532959 407.126556,573.531189 
	C407.141418,580.643677 405.807129,581.695618 398.038208,580.283936 
z"/>
<path fill="#F2EBEB" opacity="1.000000" stroke="none" 
	d="
M358.229675,566.804260 
	C359.732025,563.079956 361.904175,560.606689 365.797852,561.120239 
	C369.803009,561.648499 371.611816,564.638550 372.223938,568.324890 
	C372.514191,570.072937 372.587158,571.940918 372.309143,573.682800 
	C371.648865,577.819214 369.536469,581.100159 364.948578,580.872131 
	C360.454163,580.648743 358.528748,577.201843 357.976654,573.122559 
	C357.714813,571.187683 358.036072,569.173828 358.229675,566.804260 
z"/>
<path fill="#F3E5E5" opacity="1.000000" stroke="none" 
	d="
M211.501587,567.993042 
	C211.341690,566.251343 211.049377,563.599670 212.027527,562.991577 
	C213.894043,561.831116 216.706604,561.039856 218.707825,561.597534 
	C220.445923,562.081909 221.606216,564.639832 223.021851,566.281433 
	C222.701370,566.856262 222.380890,567.431091 222.060425,568.005920 
	C218.687927,568.005920 215.315430,568.005920 211.501587,567.993042 
z"/>
<path fill="#F3E5E5" opacity="1.000000" stroke="none" 
	d="
M436.731995,561.076294 
	C438.789673,562.735535 440.446320,564.328186 442.102997,565.920776 
	C441.778595,566.436951 441.454193,566.953064 441.129791,567.469238 
	C437.155792,567.469238 433.181824,567.469238 428.994904,567.469238 
	C429.312317,563.025513 431.847595,560.974365 436.731995,561.076294 
z"/>
<path fill="#FF4C4C" opacity="1.000000" stroke="none" 
	d="
M252.500336,235.421173 
	C257.475616,220.547058 262.296295,206.037323 267.577942,190.140060 
	C284.964783,242.349075 301.936432,293.311310 319.070404,344.761017 
	C284.785950,344.761017 250.951416,344.761017 216.223862,344.761017 
	C228.325165,308.252838 240.335449,272.019196 252.500336,235.421173 
z"/>
</svg>