<?xml version="1.0" encoding="UTF-8"?>
<!DOCTYPE svg PUBLIC "-//W3C//DTD SVG 1.1//EN" "http://www.w3.org/Graphics/SVG/1.1/DTD/svg11.dtd">
<svg xmlns="http://www.w3.org/2000/svg" version="1.1" width="424px" height="478px" style="shape-rendering:geometricPrecision; text-rendering:geometricPrecision; image-rendering:optimizeQuality; fill-rule:evenodd; clip-rule:evenodd" xmlns:xlink="http://www.w3.org/1999/xlink">
<g><path style="opacity:0.989" fill="#fefefe" d="M 419.5,147.5 C 418.676,143.688 418.176,139.688 418,135.5C 417.333,151.5 417.333,167.5 418,183.5C 418.171,175.323 418.671,167.323 419.5,159.5C 419.5,211.5 419.5,263.5 419.5,315.5C 418.67,306.342 418.17,297.009 418,287.5C 417.333,306.167 417.333,324.833 418,343.5C 418.17,334.657 418.67,325.99 419.5,317.5C 419.85,328.549 419.35,339.549 418,350.5C 415.284,357.279 411.117,362.945 405.5,367.5C 343.842,403.099 282.175,438.599 220.5,474C 214.917,474.191 209.417,474.691 204,475.5C 140.857,440.174 78.0237,404.174 15.5,367.5C 4.10471,358.507 -0.561955,346.674 1.5,332C 1.39615,277.056 1.56282,221.889 2,166.5C 2.33333,153.833 2.66667,141.167 3,128.5C 5.91324,119.173 11.7466,112.34 20.5,108C 79.6633,74.2527 138.663,40.2527 197.5,6C 202.342,3.90679 207.175,2.74013 212,2.5C 216.961,3.61485 221.795,5.11485 226.5,7C 285.594,41.5019 344.928,75.8352 404.5,110C 416.773,119.406 421.773,131.906 419.5,147.5 Z M 189.5,146.5 C 189.897,145.475 190.563,145.308 191.5,146C 194.922,148.719 197.422,151.886 199,155.5C 195.964,152.296 192.797,149.296 189.5,146.5 Z M 232.5,145.5 C 229.538,148.964 226.371,152.297 223,155.5C 222.333,154.833 222.333,154.167 223,153.5C 225.766,150.223 228.933,147.557 232.5,145.5 Z M 209.5,147.5 C 209.598,149.553 208.931,151.22 207.5,152.5C 207.402,150.447 208.069,148.78 209.5,147.5 Z M 113.5,219.5 C 112.167,220.167 111.167,221.167 110.5,222.5C 104.946,233.13 100.28,244.297 96.5,256C 97.4061,257.699 97.7394,259.533 97.5,261.5C 102.657,260.169 107.657,258.336 112.5,256C 117.413,254.415 122.413,253.748 127.5,254C 135.537,256.52 143.204,259.853 150.5,264C 153.653,266.805 155.319,270.305 155.5,274.5C 155.46,279.193 155.127,283.859 154.5,288.5C 144.256,308.916 129.256,325.083 109.5,337C 105.551,339.094 101.384,340.594 97,341.5C 91.478,340.078 85.978,338.578 80.5,337C 79.0267,336.29 78.3601,335.124 78.5,333.5C 80.8568,333.663 83.1902,333.497 85.5,333C 92.4982,329.503 99.1648,325.503 105.5,321C 113.676,312.489 121.509,303.656 129,294.5C 132.527,288.779 135.527,282.779 138,276.5C 138.667,273.167 138.667,269.833 138,266.5C 137.363,264.697 136.197,263.364 134.5,262.5C 123.576,265.864 112.743,269.53 102,273.5C 96.1188,271.873 90.2855,270.04 84.5,268C 82.3333,267.167 80.8333,265.667 80,263.5C 80.0241,236.951 90.1908,215.118 110.5,198C 114.091,195.195 118.091,194.195 122.5,195C 127.302,196.901 131.636,199.568 135.5,203C 127.577,205.514 120.743,209.681 115,215.5C 114.209,216.745 113.709,218.078 113.5,219.5 Z M 180.5,207.5 C 180.238,208.978 180.571,210.311 181.5,211.5C 182.452,209.955 182.785,208.288 182.5,206.5C 182.369,205.761 182.536,205.094 183,204.5C 183.852,205.571 184.685,206.571 185.5,207.5C 185.183,211.702 185.517,215.702 186.5,219.5C 186.66,225.288 186.66,230.954 186.5,236.5C 187.016,240.739 188.016,244.739 189.5,248.5C 189.665,250.827 190.331,252.993 191.5,255C 190.62,256.356 190.286,257.856 190.5,259.5C 191.011,261.195 191.678,262.861 192.5,264.5C 193.451,265.326 194.451,265.492 195.5,265C 206.787,248.729 217.621,232.229 228,215.5C 229.295,213.878 230.795,212.545 232.5,211.5C 234.453,212.156 236.453,212.489 238.5,212.5C 238.392,214.783 237.559,216.783 236,218.5C 222.281,233.635 209.781,249.635 198.5,266.5C 205.805,282.45 214.638,297.45 225,311.5C 230.292,318.46 235.958,325.127 242,331.5C 243.626,333.917 245.126,336.417 246.5,339C 245.234,339.309 244.067,339.809 243,340.5C 240.772,338.887 238.272,338.22 235.5,338.5C 233.984,335.467 231.984,332.8 229.5,330.5C 228.473,329.152 227.14,328.652 225.5,329C 226.163,330.518 227.163,331.685 228.5,332.5C 230.025,334.216 231.025,336.216 231.5,338.5C 229.833,337.167 228.167,335.833 226.5,334.5C 225.049,332.209 223.382,330.043 221.5,328C 220.251,327.26 219.251,327.427 218.5,328.5C 208.679,318.017 200.013,306.684 192.5,294.5C 191.585,295.328 190.919,296.328 190.5,297.5C 191.407,311.486 191.907,325.486 192,339.5C 186.569,340.6 181.069,341.1 175.5,341C 174.086,336.608 173.086,332.108 172.5,327.5C 172.5,324.5 172.5,321.5 172.5,318.5C 171.52,288.767 171.187,259.1 171.5,229.5C 172.59,220.524 173.423,211.524 174,202.5C 174.826,200.595 175.993,200.261 177.5,201.5C 178.801,203.444 179.801,205.444 180.5,207.5 Z M 271.5,226.5 C 271.5,230.167 271.5,233.833 271.5,237.5C 272.5,237.5 273.5,237.5 274.5,237.5C 274.5,243.833 274.5,250.167 274.5,256.5C 276.099,256.768 277.432,256.434 278.5,255.5C 292.636,238.522 306.636,221.356 320.5,204C 325.911,202.873 329.911,204.707 332.5,209.5C 332.5,210.833 332.5,212.167 332.5,213.5C 333.959,213.567 335.292,213.234 336.5,212.5C 337.315,213.837 338.482,214.837 340,215.5C 344.167,245.674 339.167,274.341 325,301.5C 323.723,303.747 322.223,305.747 320.5,307.5C 320.414,306.504 320.748,305.671 321.5,305C 320.833,304.333 320.167,304.333 319.5,305C 317.707,307.795 315.54,310.295 313,312.5C 312.577,315.133 311.41,317.299 309.5,319C 310.056,319.383 310.389,319.883 310.5,320.5C 305.14,331.029 297.474,339.529 287.5,346C 285.722,346.704 283.888,347.204 282,347.5C 275.9,346.05 269.733,345.05 263.5,344.5C 283.546,327.259 299.379,306.592 311,282.5C 316.265,267.704 320.098,252.537 322.5,237C 322.167,236.167 321.833,235.333 321.5,234.5C 320.571,235.55 319.905,235.55 319.5,234.5C 320.11,233.609 320.443,232.609 320.5,231.5C 321.558,230.4 322.392,229.066 323,227.5C 323.27,224.776 323.77,222.109 324.5,219.5C 323.965,217.899 322.965,217.399 321.5,218C 314.53,226.789 308.197,235.956 302.5,245.5C 300.946,246.914 299.612,248.581 298.5,250.5C 300.095,251.044 301.429,250.377 302.5,248.5C 303.167,248.5 303.833,248.5 304.5,248.5C 303.213,250.637 302.379,252.97 302,255.5C 297.251,259.578 293.251,264.245 290,269.5C 286.754,272.876 282.921,274.709 278.5,275C 274.066,273.617 269.732,271.95 265.5,270C 263,268.833 261.167,267 260,264.5C 256.572,243.35 256.905,222.35 261,201.5C 264.549,203.36 268.049,205.36 271.5,207.5C 272.79,213.888 272.79,220.222 271.5,226.5 Z M 309.5,239.5 C 311.646,239.696 311.812,240.696 310,242.5C 309.517,241.552 309.351,240.552 309.5,239.5 Z"/></g>
<g><path style="opacity:0.782" fill="#f5f9fb" d="M 419.5,147.5 C 419.5,151.5 419.5,155.5 419.5,159.5C 418.671,167.323 418.171,175.323 418,183.5C 417.333,167.5 417.333,151.5 418,135.5C 418.176,139.688 418.676,143.688 419.5,147.5 Z"/></g>
<g><path style="opacity:0.661" fill="#e9f2fa" d="M 182.5,206.5 C 182.785,208.288 182.452,209.955 181.5,211.5C 180.571,210.311 180.238,208.978 180.5,207.5C 180.409,205.302 181.075,204.969 182.5,206.5 Z"/></g>
<g><path style="opacity:0.778" fill="#edf1f4" d="M 186.5,219.5 C 185.517,215.702 185.183,211.702 185.5,207.5C 185.783,206.711 186.283,206.044 187,205.5C 188.972,210.332 188.806,214.999 186.5,219.5 Z"/></g>
<g><path style="opacity:0.165" fill="#ecf0f6" d="M 332.5,209.5 C 334.632,209.554 335.965,210.554 336.5,212.5C 335.292,213.234 333.959,213.567 332.5,213.5C 332.5,212.167 332.5,210.833 332.5,209.5 Z"/></g>
<g><path style="opacity:0.451" fill="#edf1f3" d="M 110.5,222.5 C 111.167,221.167 112.167,220.167 113.5,219.5C 115.655,218.448 115.988,219.114 114.5,221.5C 113.272,223.176 111.939,223.509 110.5,222.5 Z"/></g>
<g><path style="opacity:0.51" fill="#e3e9f1" d="M 335.5,218.5 C 336.5,218.5 337.5,218.5 338.5,218.5C 338.88,220.698 338.213,222.365 336.5,223.5C 335.549,222.081 335.216,220.415 335.5,218.5 Z"/></g>
<g><path style="opacity:0.835" fill="#f8fcfd" d="M 335.5,218.5 C 335.216,220.415 335.549,222.081 336.5,223.5C 334.958,231.115 333.458,238.782 332,246.5C 331.049,250.027 329.716,253.36 328,256.5C 328.993,245.172 330.326,233.839 332,222.5C 332.498,220.456 333.665,219.122 335.5,218.5 Z"/></g>
<g><path style="opacity:0.533" fill="#f4f5f6" d="M 320.5,231.5 C 320.443,232.609 320.11,233.609 319.5,234.5C 318.662,234.842 318.328,235.508 318.5,236.5C 317.167,236.833 317.167,237.167 318.5,237.5C 318.44,238.043 318.107,238.376 317.5,238.5C 316.452,237.452 315.452,236.452 314.5,235.5C 315.833,235.167 315.833,234.833 314.5,234.5C 315.466,232.943 316.8,231.61 318.5,230.5C 319.183,230.863 319.85,231.196 320.5,231.5 Z"/></g>
<g><path style="opacity:0.945" fill="#e3e4e4" d="M 210.5,232.5 C 211.776,233.386 211.776,234.386 210.5,235.5C 209.913,234.767 209.913,233.767 210.5,232.5 Z"/></g>
<g><path style="opacity:0.387" fill="#e7f0f6" d="M 184.5,249.5 C 183.833,249.5 183.167,249.5 182.5,249.5C 181.5,247.421 181.834,245.421 183.5,243.5C 184.466,245.396 184.799,247.396 184.5,249.5 Z"/></g>
<g><path style="opacity:0.344" fill="#f0f5fd" d="M 302.5,245.5 C 302.5,246.5 302.5,247.5 302.5,248.5C 301.429,250.377 300.095,251.044 298.5,250.5C 299.612,248.581 300.946,246.914 302.5,245.5 Z"/></g>
<g><path style="opacity:0.722" fill="#f7fcfe" d="M 182.5,249.5 C 183.167,249.5 183.833,249.5 184.5,249.5C 184.827,254.214 184.493,258.88 183.5,263.5C 182.914,263.291 182.414,262.957 182,262.5C 181.232,258.08 181.398,253.747 182.5,249.5 Z"/></g>
<g><path style="opacity:0.461" fill="#f2f7fb" d="M 271.5,226.5 C 272.239,226.369 272.906,226.536 273.5,227C 272.593,229.477 272.926,232.311 274.5,235.5C 275.376,236.251 276.376,236.751 277.5,237C 276.229,239.554 275.562,242.387 275.5,245.5C 275.667,248.167 275.833,250.833 276,253.5C 276.417,254.756 277.25,255.423 278.5,255.5C 277.432,256.434 276.099,256.768 274.5,256.5C 274.5,250.167 274.5,243.833 274.5,237.5C 273.5,237.5 272.5,237.5 271.5,237.5C 271.5,233.833 271.5,230.167 271.5,226.5 Z"/></g>
<g><path style="opacity:0.82" fill="#f3f8fd" d="M 189.5,248.5 C 191.379,248.393 191.712,248.893 190.5,250C 191.308,252.088 192.308,254.088 193.5,256C 193.026,257.729 192.026,258.895 190.5,259.5C 190.286,257.856 190.62,256.356 191.5,255C 190.331,252.993 189.665,250.827 189.5,248.5 Z"/></g>
<g><path style="opacity:0.33" fill="#f4fbfe" d="M 155.5,274.5 C 156.647,278.646 156.814,282.98 156,287.5C 155.617,288.056 155.117,288.389 154.5,288.5C 155.127,283.859 155.46,279.193 155.5,274.5 Z"/></g>
<g><path style="opacity:0.774" fill="#f7f9fc" d="M 419.5,315.5 C 419.5,316.167 419.5,316.833 419.5,317.5C 418.67,325.99 418.17,334.657 418,343.5C 417.333,324.833 417.333,306.167 418,287.5C 418.17,297.009 418.67,306.342 419.5,315.5 Z"/></g>
<g><path style="opacity:0.609" fill="#f4f8fb" d="M 320.5,307.5 C 319.662,307.842 319.328,308.508 319.5,309.5C 316.887,310.095 316.887,310.929 319.5,312C 316.591,315.043 313.591,317.876 310.5,320.5C 310.389,319.883 310.056,319.383 309.5,319C 311.41,317.299 312.577,315.133 313,312.5C 315.54,310.295 317.707,307.795 319.5,305C 320.167,304.333 320.833,304.333 321.5,305C 320.748,305.671 320.414,306.504 320.5,307.5 Z"/></g>
<g><path style="opacity:0.785" fill="#f4f5fa" d="M 172.5,318.5 C 172.5,321.5 172.5,324.5 172.5,327.5C 171.883,327.389 171.383,327.056 171,326.5C 170.333,323.5 170.333,320.5 171,317.5C 171.383,318.056 171.883,318.389 172.5,318.5 Z"/></g>
<g><path style="opacity:0.463" fill="#e7f1f9" d="M 229.5,330.5 C 229.167,331.167 228.833,331.833 228.5,332.5C 227.163,331.685 226.163,330.518 225.5,329C 227.14,328.652 228.473,329.152 229.5,330.5 Z"/></g>
<g><path style="opacity:0.676" fill="#f2f5f8" d="M 218.5,328.5 C 219.251,327.427 220.251,327.26 221.5,328C 223.382,330.043 225.049,332.209 226.5,334.5C 225.836,335.648 225.669,336.981 226,338.5C 223.62,336.206 221.786,334.206 220.5,332.5C 220.938,332.565 221.272,332.399 221.5,332C 220.5,331.667 219.5,331.333 218.5,331C 219.774,330.023 219.774,329.189 218.5,328.5 Z"/></g>
<g><path style="opacity:0.691" fill="#f5f9fd" d="M 229.5,330.5 C 231.984,332.8 233.984,335.467 235.5,338.5C 234.883,338.389 234.383,338.056 234,337.5C 233.722,338.416 233.222,339.082 232.5,339.5C 232.5,338.833 232.167,338.5 231.5,338.5C 231.025,336.216 230.025,334.216 228.5,332.5C 228.833,331.833 229.167,331.167 229.5,330.5 Z"/></g>
</svg>
