<svg version="1.1" id="Layer_1" xmlns="http://www.w3.org/2000/svg" xmlns:xlink="http://www.w3.org/1999/xlink" x="0px" y="0px"
	 width="100%" viewBox="0 0 192 296" enable-background="new 0 0 192 296" xml:space="preserve">
<path fill="#FF4C4C" opacity="1.000000" stroke="none" 
	d="
M1.000000,225.000000 
	C1.000000,150.384399 1.000000,75.768806 1.000000,1.076604 
	C64.905075,1.076604 128.810272,1.076604 193.000000,1.076604 
	C193.000000,75.353989 193.000000,149.708328 192.531342,224.531113 
	C128.375122,224.999695 64.687561,224.999847 1.000000,225.000000 
M186.117065,203.433853 
	C165.924820,145.504349 145.642609,87.605827 125.663803,29.602797 
	C123.382858,22.980700 119.409302,20.140070 112.911003,20.059784 
	C102.916946,19.936306 92.918404,19.794519 82.926781,19.961246 
	C72.833977,20.129663 71.305252,21.522053 67.934891,31.217501 
	C50.777229,80.574593 33.559345,129.910767 16.414906,179.272430 
	C12.703677,189.957672 9.011205,200.657227 5.685772,211.465775 
	C3.676248,217.997238 5.564173,220.841721 12.234931,221.165756 
	C20.191053,221.552216 28.186649,221.271988 36.160709,221.088196 
	C40.884678,220.979309 43.662693,218.396561 45.078358,213.805725 
	C48.658138,202.196915 52.583355,190.694733 56.179337,179.090683 
	C57.114601,176.072647 58.537849,175.007034 61.795704,175.029953 
	C84.123154,175.187073 106.452568,175.171143 128.780396,175.043365 
	C131.787857,175.026184 133.152573,175.998505 134.064316,178.829590 
	C137.932098,190.839539 141.801697,202.859589 146.195297,214.680939 
	C147.127625,217.189468 150.160355,220.529648 152.397583,220.666245 
	C162.994034,221.313293 173.653000,221.126816 184.283493,220.919754 
	C187.841766,220.850464 189.762299,218.369476 189.109207,214.765335 
	C188.461365,211.190262 187.326874,207.703384 186.117065,203.433853 
z"/>
<path fill="#F2F1F1" opacity="1.000000" stroke="none" 
	d="
M1.000000,225.468658 
	C64.687561,224.999847 128.375122,224.999695 192.531342,224.999771 
	C193.000000,246.687561 193.000000,268.375122 192.531342,290.532471 
	C128.375122,291.001526 64.687561,291.000763 1.000000,291.000000 
	C1.000000,269.312439 1.000000,247.624878 1.000000,225.468658 
M148.599152,266.025696 
	C152.056442,266.911011 155.513718,267.796326 159.626495,268.849487 
	C159.626495,262.424622 159.747894,257.303436 159.514816,252.198456 
	C159.472778,251.277481 157.973328,250.423035 157.146744,249.537888 
	C156.775406,249.795929 156.404068,250.053986 156.032730,250.312027 
	C156.032730,251.738907 156.032730,253.165771 156.032730,254.549774 
	C148.120560,255.466003 146.203171,258.198303 148.599152,266.025696 
M167.689178,262.042755 
	C169.588043,262.042755 171.486923,262.042755 173.639679,262.042755 
	C173.460373,257.907074 172.649994,255.280701 168.729919,254.987411 
	C165.211212,254.724136 162.873123,256.402649 162.136505,259.724518 
	C161.401611,263.038727 162.037445,266.233185 165.699112,267.517334 
	C168.273148,268.420044 171.055649,268.706390 172.955795,266.120544 
	C171.413055,265.629456 169.988785,266.005707 168.616913,265.866272 
	C166.666046,265.667999 166.164566,264.387848 167.689178,262.042755 
M82.215218,261.901520 
	C84.371101,259.028839 83.036156,256.777435 80.456276,255.556229 
	C77.212296,254.020630 74.048012,254.896103 72.463936,258.282043 
	C70.947357,261.523712 71.150879,264.828217 74.520203,267.078949 
	C77.320633,268.949646 80.975067,268.289520 83.149918,265.156982 
	C79.593811,266.068573 76.224602,266.854523 75.136070,262.011627 
	C77.403656,262.011627 79.377304,262.011627 82.215218,261.901520 
M132.720734,260.853882 
	C132.403183,264.694672 133.861755,267.428558 137.867203,267.930908 
	C141.565430,268.394775 144.308594,266.867676 145.253754,262.981781 
	C146.117279,259.431671 144.899216,256.751526 141.542679,255.343369 
	C137.914093,253.821075 134.806839,255.614410 132.720734,260.853882 
M122.187965,257.047729 
	C124.653748,255.185349 127.119522,253.322968 129.325806,251.656570 
	C124.293091,250.086044 120.065880,252.141251 118.515198,257.369568 
	C117.192741,261.828369 119.477814,266.257233 123.822464,267.655914 
	C127.303917,268.776703 129.720642,268.025696 130.545151,265.566772 
	C124.126160,266.424957 122.130836,264.616913 122.187965,257.047729 
M109.911247,256.126251 
	C107.433174,256.201782 103.663078,255.282410 102.704086,256.527740 
	C98.863800,261.514679 106.035416,261.743805 107.591194,265.523804 
	C105.194862,265.523804 103.354530,265.523804 101.514198,265.523804 
	C101.476982,266.094788 101.439758,266.665802 101.402534,267.236786 
	C103.744873,268.593079 106.866623,268.958160 108.858597,267.037659 
	C114.630363,261.473022 105.786186,261.161835 104.735016,257.528320 
	C106.688553,257.292694 108.276276,257.101166 109.911247,256.126251 
M85.519447,255.006271 
	C85.913971,258.099976 86.159058,261.222076 86.740646,264.280243 
	C87.476517,268.149689 88.719658,268.624939 92.881218,267.020660 
	C88.485474,263.738800 88.443199,258.701477 92.788391,255.863449 
	C91.852257,255.156815 90.822853,254.542252 90.007446,253.716400 
	C89.262039,252.961456 88.748131,251.977936 88.132202,251.095139 
	C87.510902,252.275909 86.889595,253.456696 85.519447,255.006271 
M24.374449,256.905182 
	C23.115793,257.708771 21.580997,258.292114 20.699825,259.396820 
	C20.152514,260.082947 20.133148,262.167633 20.672663,262.577820 
	C23.321342,264.591522 26.236784,266.254395 29.057993,268.041229 
	C29.497570,267.465057 29.937145,266.888916 30.376722,266.312744 
	C28.149925,264.515747 25.923128,262.718750 23.767851,260.979462 
	C26.159409,259.013123 28.243773,257.299347 30.328136,255.585571 
	C29.910969,255.091629 29.493803,254.597672 29.076635,254.103714 
	C27.711235,254.912720 26.345833,255.721725 24.374449,256.905182 
M48.177094,258.294373 
	C45.972336,256.909729 43.767582,255.525101 40.982166,253.775803 
	C39.688053,259.028168 45.943142,258.042206 46.232346,260.885254 
	C45.293449,263.854309 39.979473,263.191376 40.864750,268.328400 
	C44.079403,266.285004 46.572033,264.725922 49.038094,263.125916 
	C51.544392,261.499786 51.012024,260.033325 48.177094,258.294373 
M63.496349,267.999176 
	C65.721786,267.851898 67.947227,267.704651 70.172668,267.557373 
	C70.149887,267.122192 70.127098,266.687012 70.104317,266.251831 
	C67.782784,266.068237 65.461243,265.884644 62.997372,265.689789 
	C62.997372,261.391815 63.085045,257.416840 62.925983,253.451767 
	C62.892780,252.624161 61.948101,251.833115 61.423462,251.025223 
	C60.868809,251.794113 59.865128,252.545670 59.834667,253.334793 
	C59.674488,257.484375 59.618206,261.652588 59.885326,265.791138 
	C59.936264,266.580322 61.601601,267.265289 63.496349,267.999176 
M36.376789,261.080139 
	C37.192162,257.479034 38.007530,253.877945 38.822903,250.276840 
	C38.068684,250.141129 37.314465,250.005402 36.560242,249.869690 
	C34.969566,257.134247 33.378891,264.398804 31.788214,271.663361 
	C32.477707,271.825806 33.167202,271.988251 33.856697,272.150696 
	C34.629429,268.731079 35.402161,265.311462 36.376789,261.080139 
M98.144524,256.399323 
	C98.651917,255.039490 99.472771,253.695068 99.540779,252.313614 
	C99.577393,251.569672 98.323914,250.762207 97.652519,249.983414 
	C96.839325,250.801712 95.490318,251.524170 95.323280,252.458038 
	C94.963882,254.467255 95.212921,256.585297 95.212921,259.280304 
	C96.376045,258.225739 97.074356,257.592621 98.144524,256.399323 
z"/>
<path fill="#FF4B4B" opacity="1.000000" stroke="none" 
	d="
M1.000000,291.499481 
	C64.687561,291.000763 128.375122,291.001526 192.531342,291.001129 
	C193.000000,292.995087 193.000000,294.990204 193.000000,296.988953 
	C129.000000,296.992645 65.000000,296.992645 1.000000,296.989685 
	C1.000000,295.324127 1.000000,293.661530 1.000000,291.499481 
z"/>
<path fill="#E5E4E4" opacity="1.000000" stroke="none" 
	d="
M186.261429,203.805832 
	C187.326874,207.703384 188.461365,211.190262 189.109207,214.765335 
	C189.762299,218.369476 187.841766,220.850464 184.283493,220.919754 
	C173.653000,221.126816 162.994034,221.313293 152.397583,220.666245 
	C150.160355,220.529648 147.127625,217.189468 146.195297,214.680939 
	C141.801697,202.859589 137.932098,190.839539 134.064316,178.829590 
	C133.152573,175.998505 131.787857,175.026184 128.780396,175.043365 
	C106.452568,175.171143 84.123154,175.187073 61.795704,175.029953 
	C58.537849,175.007034 57.114601,176.072647 56.179337,179.090683 
	C52.583355,190.694733 48.658138,202.196915 45.078358,213.805725 
	C43.662693,218.396561 40.884678,220.979309 36.160709,221.088196 
	C28.186649,221.271988 20.191053,221.552216 12.234931,221.165756 
	C5.564173,220.841721 3.676248,217.997238 5.685772,211.465775 
	C9.011205,200.657227 12.703677,189.957672 16.414906,179.272430 
	C33.559345,129.910767 50.777229,80.574593 67.934891,31.217501 
	C71.305252,21.522053 72.833977,20.129663 82.926781,19.961246 
	C92.918404,19.794519 102.916946,19.936306 112.911003,20.059784 
	C119.409302,20.140070 123.382858,22.980700 125.663803,29.602797 
	C145.642609,87.605827 165.924820,145.504349 186.261429,203.805832 
M92.707512,65.290146 
	C84.049957,91.330765 75.392395,117.371384 66.655258,143.651367 
	C85.960503,143.651367 104.335289,143.651367 123.249535,143.651367 
	C113.887291,115.541473 104.676575,87.886513 95.023537,58.903519 
	C93.966187,61.802368 93.461998,63.184658 92.707512,65.290146 
z"/>
<path fill="#FE1A1A" opacity="1.000000" stroke="none" 
	d="
M148.360901,265.705872 
	C146.203171,258.198303 148.120560,255.466003 156.032730,254.549774 
	C156.032730,253.165771 156.032730,251.738907 156.032730,250.312027 
	C156.404068,250.053986 156.775406,249.795929 157.146744,249.537888 
	C157.973328,250.423035 159.472778,251.277481 159.514816,252.198456 
	C159.747894,257.303436 159.626495,262.424622 159.626495,268.849487 
	C155.513718,267.796326 152.056442,266.911011 148.360901,265.705872 
M153.800537,257.120697 
	C150.105560,258.687378 150.352020,261.534271 151.702499,264.428284 
	C152.057587,265.189209 153.522217,265.647003 154.540634,265.788605 
	C155.013626,265.854370 156.167297,264.757172 156.105957,264.312134 
	C155.772522,261.893555 155.156296,259.514008 153.800537,257.120697 
z"/>
<path fill="#FE1414" opacity="1.000000" stroke="none" 
	d="
M167.258209,262.056152 
	C166.164566,264.387848 166.666046,265.667999 168.616913,265.866272 
	C169.988785,266.005707 171.413055,265.629456 172.955795,266.120544 
	C171.055649,268.706390 168.273148,268.420044 165.699112,267.517334 
	C162.037445,266.233185 161.401611,263.038727 162.136505,259.724518 
	C162.873123,256.402649 165.211212,254.724136 168.729919,254.987411 
	C172.649994,255.280701 173.460373,257.907074 173.639679,262.042755 
	C171.486923,262.042755 169.588043,262.042755 167.258209,262.056152 
z"/>
<path fill="#FE0E0E" opacity="1.000000" stroke="none" 
	d="
M81.783081,261.956573 
	C79.377304,262.011627 77.403656,262.011627 75.136070,262.011627 
	C76.224602,266.854523 79.593811,266.068573 83.149918,265.156982 
	C80.975067,268.289520 77.320633,268.949646 74.520203,267.078949 
	C71.150879,264.828217 70.947357,261.523712 72.463936,258.282043 
	C74.048012,254.896103 77.212296,254.020630 80.456276,255.556229 
	C83.036156,256.777435 84.371101,259.028839 81.783081,261.956573 
z"/>
<path fill="#FE1212" opacity="1.000000" stroke="none" 
	d="
M132.761185,260.484070 
	C134.806839,255.614410 137.914093,253.821075 141.542679,255.343369 
	C144.899216,256.751526 146.117279,259.431671 145.253754,262.981781 
	C144.308594,266.867676 141.565430,268.394775 137.867203,267.930908 
	C133.861755,267.428558 132.403183,264.694672 132.761185,260.484070 
M140.734253,257.910767 
	C137.522263,255.890610 136.171143,258.251038 136.244736,260.564423 
	C136.301865,262.361053 138.137909,264.101135 139.183289,265.866333 
	C140.113312,264.192139 141.176376,262.572357 141.896225,260.812195 
	C142.126816,260.248383 141.449631,259.313263 140.734253,257.910767 
z"/>
<path fill="#FE1616" opacity="1.000000" stroke="none" 
	d="
M122.108078,257.448486 
	C122.130836,264.616913 124.126160,266.424957 130.545151,265.566772 
	C129.720642,268.025696 127.303917,268.776703 123.822464,267.655914 
	C119.477814,266.257233 117.192741,261.828369 118.515198,257.369568 
	C120.065880,252.141251 124.293091,250.086044 129.325806,251.656570 
	C127.119522,253.322968 124.653748,255.185349 122.108078,257.448486 
z"/>
<path fill="#FE1818" opacity="1.000000" stroke="none" 
	d="
M109.887619,256.517944 
	C108.276276,257.101166 106.688553,257.292694 104.735016,257.528320 
	C105.786186,261.161835 114.630363,261.473022 108.858597,267.037659 
	C106.866623,268.958160 103.744873,268.593079 101.402534,267.236786 
	C101.439758,266.665802 101.476982,266.094788 101.514198,265.523804 
	C103.354530,265.523804 105.194862,265.523804 107.591194,265.523804 
	C106.035416,261.743805 98.863800,261.514679 102.704086,256.527740 
	C103.663078,255.282410 107.433174,256.201782 109.887619,256.517944 
z"/>
<path fill="#FD1F1F" opacity="1.000000" stroke="none" 
	d="
M85.893867,254.821869 
	C86.889595,253.456696 87.510902,252.275909 88.132202,251.095139 
	C88.748131,251.977936 89.262039,252.961456 90.007446,253.716400 
	C90.822853,254.542252 91.852257,255.156815 92.787994,255.863983 
	C88.443199,258.701477 88.485474,263.738800 92.881218,267.020660 
	C88.719658,268.624939 87.476517,268.149689 86.740646,264.280243 
	C86.159058,261.222076 85.913971,258.099976 85.893867,254.821869 
z"/>
<path fill="#1F81C6" opacity="1.000000" stroke="none" 
	d="
M24.677441,256.717957 
	C26.345833,255.721725 27.711235,254.912720 29.076635,254.103714 
	C29.493803,254.597672 29.910969,255.091629 30.328136,255.585571 
	C28.243773,257.299347 26.159409,259.013123 23.767851,260.979462 
	C25.923128,262.718750 28.149925,264.515747 30.376722,266.312744 
	C29.937145,266.888916 29.497570,267.465057 29.057993,268.041229 
	C26.236784,266.254395 23.321342,264.591522 20.672663,262.577820 
	C20.133148,262.167633 20.152514,260.082947 20.699825,259.396820 
	C21.580997,258.292114 23.115793,257.708771 24.677441,256.717957 
z"/>
<path fill="#1F81C6" opacity="1.000000" stroke="none" 
	d="
M48.462112,258.497375 
	C51.012024,260.033325 51.544392,261.499786 49.038094,263.125916 
	C46.572033,264.725922 44.079403,266.285004 40.864750,268.328400 
	C39.979473,263.191376 45.293449,263.854309 46.232346,260.885254 
	C45.943142,258.042206 39.688053,259.028168 40.982166,253.775803 
	C43.767582,255.525101 45.972336,256.909729 48.462112,258.497375 
z"/>
<path fill="#FF0101" opacity="1.000000" stroke="none" 
	d="
M63.009224,267.998779 
	C61.601601,267.265289 59.936264,266.580322 59.885326,265.791138 
	C59.618206,261.652588 59.674488,257.484375 59.834667,253.334793 
	C59.865128,252.545670 60.868809,251.794113 61.423462,251.025223 
	C61.948101,251.833115 62.892780,252.624161 62.925983,253.451767 
	C63.085045,257.416840 62.997372,261.391815 62.997372,265.689789 
	C65.461243,265.884644 67.782784,266.068237 70.104317,266.251831 
	C70.127098,266.687012 70.149887,267.122192 70.172668,267.557373 
	C67.947227,267.704651 65.721786,267.851898 63.009224,267.998779 
z"/>
<path fill="#2584C8" opacity="1.000000" stroke="none" 
	d="
M36.275841,261.485992 
	C35.402161,265.311462 34.629429,268.731079 33.856697,272.150696 
	C33.167202,271.988251 32.477707,271.825806 31.788214,271.663361 
	C33.378891,264.398804 34.969566,257.134247 36.560242,249.869690 
	C37.314465,250.005402 38.068684,250.141129 38.822903,250.276840 
	C38.007530,253.877945 37.192162,257.479034 36.275841,261.485992 
z"/>
<path fill="#FD2121" opacity="1.000000" stroke="none" 
	d="
M97.958588,256.679382 
	C97.074356,257.592621 96.376045,258.225739 95.212921,259.280304 
	C95.212921,256.585297 94.963882,254.467255 95.323280,252.458038 
	C95.490318,251.524170 96.839325,250.801712 97.652512,249.983414 
	C98.323914,250.762207 99.577393,251.569672 99.540779,252.313614 
	C99.472771,253.695068 98.651917,255.039490 97.958588,256.679382 
z"/>
<path fill="#FF4D4D" opacity="1.000000" stroke="none" 
	d="
M92.832664,64.928543 
	C93.461998,63.184658 93.966187,61.802368 95.023537,58.903519 
	C104.676575,87.886513 113.887291,115.541473 123.249535,143.651367 
	C104.335289,143.651367 85.960503,143.651367 66.655258,143.651367 
	C75.392395,117.371384 84.049957,91.330765 92.832664,64.928543 
z"/>
<path fill="#F2E9E9" opacity="1.000000" stroke="none" 
	d="
M154.218994,257.120850 
	C155.156296,259.514008 155.772522,261.893555 156.105957,264.312134 
	C156.167297,264.757172 155.013626,265.854370 154.540634,265.788605 
	C153.522217,265.647003 152.057587,265.189209 151.702499,264.428284 
	C150.352020,261.534271 150.105560,258.687378 154.218994,257.120850 
z"/>
<path fill="#F3E6E6" opacity="1.000000" stroke="none" 
	d="
M140.961014,258.229401 
	C141.449631,259.313263 142.126816,260.248383 141.896225,260.812195 
	C141.176376,262.572357 140.113312,264.192139 139.183289,265.866333 
	C138.137909,264.101135 136.301865,262.361053 136.244736,260.564423 
	C136.171143,258.251038 137.522263,255.890610 140.961014,258.229401 
z"/>
</svg>