<svg xmlns="http://www.w3.org/2000/svg" xmlns:xlink="http://www.w3.org/1999/xlink" version="1.1" width="1000" height="1000" viewBox="0 0 1000 1000" xml:space="preserve">
<desc>Created with Fabric.js 3.5.0</desc>
<defs>
</defs>
<rect x="0" y="0" width="100%" height="100%" fill="rgba(255,255,255,0)"/>
<g transform="matrix(1 0 0 1 -260.7362 306.7485)" id="886013">
<g style="" vector-effect="non-scaling-stroke">
		<g transform="matrix(1 0 0 1 1 1)" id="Layer_1">
<path style="stroke: none; stroke-width: 1; stroke-dasharray: none; stroke-linecap: butt; stroke-dashoffset: 0; stroke-linejoin: miter; stroke-miterlimit: 4; is-custom-font: none; font-file-url: none; fill: rgb(255,0,0); fill-rule: nonzero; opacity: 1;" transform=" translate(-213, -181.5)" d="M 282 362 C 188.000015 362 94.500031 362 1.000038 362 C 1.000025 241.666702 1.000025 121.333412 1.000013 1.000086 C 142.333267 1.000057 283.666534 1.000057 424.999878 1.000029 C 424.999908 121.333252 424.999908 241.666504 424.999939 361.999878 C 377.5 362 330 362 282 362 M 27.37431 282.936401 C 36.070271 282.874512 41.84922 278.42334 45.024879 270.638672 C 50.797272 256.488525 56.551334 242.321976 61.822571 227.981979 C 63.326183 223.891464 65.323036 222.953659 69.331909 222.978302 C 96.156258 223.143112 122.982101 223.063934 149.807465 223.063934 C 158.784668 223.063934 158.648117 223.119049 162.114258 231.708771 C 167.460434 244.95752 172.579163 258.325745 178.618896 271.25824 C 183.498184 281.705902 194.412308 285.485657 205.248276 281.724976 C 215.594513 278.134247 222.291656 267.597076 220.062546 257.052246 C 218.594498 250.107635 216.301865 243.256119 213.648773 236.65625 C 194.489944 188.99646 175.187332 141.394272 155.829208 93.814964 C 150.948883 81.819908 146.218353 69.718575 140.484802 58.128227 C 134.228668 45.481525 123.098061 40.421051 109.182358 40.990208 C 96.067924 41.526585 86.98243 48.093136 81.145515 59.519547 C 79.258461 63.213676 77.543175 67.014076 76.019928 70.872696 C 58.07412 116.332199 40.129154 161.792206 22.299904 207.297485 C 16.239422 222.765564 9.757825 238.129074 4.833891 253.964844 C 0.030097 269.414246 10.349958 282.35257 27.37431 282.936401 M 287.388794 113.189781 C 281.32193 105.903595 273.526489 104.422852 264.845581 106.911385 C 256.383057 109.337318 252.905579 115.895477 251.82106 124.052238 C 251.448746 126.852432 251.195358 129.692413 251.193817 132.514389 C 251.159851 194.339645 251.119278 256.165039 251.25415 317.98999 C 251.266388 323.602478 252.152878 329.270325 253.198349 334.805756 C 254.085983 339.505463 256.545959 343.50351 261.122894 345.731171 C 273.995819 351.99646 287.77066 345.462067 291.035339 331.484222 C 291.59967 329.067963 292.071594 326.567841 292.105316 324.099884 C 292.351288 306.106354 292.48349 288.111237 292.630005 270.116455 C 292.670044 265.200134 292.636108 260.283173 292.636108 254.251663 C 295.737274 257.530914 298.028595 259.839783 300.194183 262.261108 C 328.211914 293.586914 375.434937 286.485107 398.159546 261.669006 C 411.385956 247.225281 418.055054 229.91832 420.418701 210.856277 C 423.566193 185.473053 421.163605 160.922272 407.177948 138.66687 C 384.714355 102.920616 336.85907 95.165382 305.285187 122.131813 C 301.041687 125.756073 297.309937 129.979523 293.988464 133.281952 C 291.965454 126.839729 289.910889 120.297089 287.388794 113.189781 z" stroke-linecap="round"/>
</g>
		<g transform="matrix(1 0 0 1 -99.9289 -18.4536)" id="Layer_1">
<path style="stroke: none; stroke-width: 1; stroke-dasharray: none; stroke-linecap: butt; stroke-dashoffset: 0; stroke-linejoin: miter; stroke-miterlimit: 4; is-custom-font: none; font-file-url: none; fill: rgb(255,253,253); fill-rule: nonzero; opacity: 1;" transform=" translate(-112.0711, -162.0464)" d="M 26.935759 282.957214 C 10.349958 282.35257 0.030097 269.414246 4.833891 253.964844 C 9.757825 238.129074 16.239422 222.765564 22.299904 207.297485 C 40.129154 161.792206 58.07412 116.332199 76.019928 70.872696 C 77.543175 67.014076 79.258461 63.213676 81.145515 59.519547 C 86.98243 48.093136 96.067924 41.526585 109.182358 40.990208 C 123.098061 40.421051 134.228668 45.481525 140.484802 58.128227 C 146.218353 69.718575 150.948883 81.819908 155.829208 93.814964 C 175.187332 141.394272 194.489944 188.99646 213.648773 236.65625 C 216.301865 243.256119 218.594498 250.107635 220.062546 257.052246 C 222.291656 267.597076 215.594513 278.134247 205.248276 281.724976 C 194.412308 285.485657 183.498184 281.705902 178.618896 271.25824 C 172.579163 258.325745 167.460434 244.95752 162.114258 231.708771 C 158.648117 223.119049 158.784668 223.063934 149.807465 223.063934 C 122.982101 223.063934 96.156258 223.143112 69.331909 222.978302 C 65.323036 222.953659 63.326183 223.891464 61.822571 227.981979 C 56.551334 242.321976 50.797272 256.488525 45.024879 270.638672 C 41.84922 278.42334 36.070271 282.874512 26.935759 282.957214 M 133.322723 153.142975 C 125.939934 132.886215 118.557144 112.629448 110.816536 91.390923 C 99.111206 123.974846 87.844826 155.336868 76.482445 186.966125 C 99.867218 186.966125 122.539619 186.966125 145.708817 186.966125 C 141.594849 175.581802 137.662003 164.69873 133.322723 153.142975 z" stroke-linecap="round"/>
</g>
		<g transform="matrix(1 0 0 1 124.4024 46.458)" id="Layer_1">
<path style="stroke: none; stroke-width: 1; stroke-dasharray: none; stroke-linecap: butt; stroke-dashoffset: 0; stroke-linejoin: miter; stroke-miterlimit: 4; is-custom-font: none; font-file-url: none; fill: rgb(255,253,253); fill-rule: nonzero; opacity: 1;" transform=" translate(-336.4024, -226.958)" d="M 287.622559 113.472122 C 289.910889 120.297089 291.965454 126.839729 293.988464 133.281952 C 297.309937 129.979523 301.041687 125.756073 305.285187 122.131813 C 336.85907 95.165382 384.714355 102.920616 407.177948 138.66687 C 421.163605 160.922272 423.566193 185.473053 420.418701 210.856277 C 418.055054 229.91832 411.385956 247.225281 398.159546 261.669006 C 375.434937 286.485107 328.211914 293.586914 300.194183 262.261108 C 298.028595 259.839783 295.737274 257.530914 292.636108 254.251663 C 292.636108 260.283173 292.670044 265.200134 292.630005 270.116455 C 292.48349 288.111237 292.351288 306.106354 292.105316 324.099884 C 292.071594 326.567841 291.59967 329.067963 291.035339 331.484222 C 287.77066 345.462067 273.995819 351.99646 261.122894 345.731171 C 256.545959 343.50351 254.085983 339.505463 253.198349 334.805756 C 252.152878 329.270325 251.266388 323.602478 251.25415 317.98999 C 251.119278 256.165039 251.159851 194.339645 251.193817 132.514389 C 251.195358 129.692413 251.448746 126.852432 251.82106 124.052238 C 252.905579 115.895477 256.383057 109.337318 264.845581 106.911385 C 273.526489 104.422852 281.32193 105.903595 287.622559 113.472122 M 346.643097 139.606445 C 330.227448 135.845291 316.809631 140.842987 306.140076 153.611633 C 299.624725 161.408752 296.642975 170.74324 295.506775 180.606537 C 293.556793 197.533844 293.749878 214.335449 303.070679 229.448685 C 311.058258 242.400177 322.636566 249.663223 338.293884 249.118668 C 353.487091 248.590256 364.267273 240.650116 370.428192 227.399216 C 380.964905 204.737015 380.964203 181.62085 369.994171 159.002686 C 365.398346 149.526901 357.740173 142.938889 346.643097 139.606445 z" stroke-linecap="round"/>
</g>
		<g transform="matrix(1 0 0 1 -100.9044 -41.3215)" id="Layer_1">
<path style="stroke: none; stroke-width: 1; stroke-dasharray: none; stroke-linecap: butt; stroke-dashoffset: 0; stroke-linejoin: miter; stroke-miterlimit: 4; is-custom-font: none; font-file-url: none; fill: rgb(255,1,1); fill-rule: nonzero; opacity: 1;" transform=" translate(-111.0956, -139.1785)" d="M 133.52594 153.479309 C 137.662003 164.69873 141.594849 175.581802 145.708817 186.966125 C 122.539619 186.966125 99.867218 186.966125 76.482445 186.966125 C 87.844826 155.336868 99.111206 123.974846 110.816536 91.390923 C 118.557144 112.629448 125.939934 132.886215 133.52594 153.479309 z" stroke-linecap="round"/>
</g>
		<g transform="matrix(1 0 0 1 124.3979 13.2939)" id="Layer_1">
<path style="stroke: none; stroke-width: 1; stroke-dasharray: none; stroke-linecap: butt; stroke-dashoffset: 0; stroke-linejoin: miter; stroke-miterlimit: 4; is-custom-font: none; font-file-url: none; fill: rgb(255,1,1); fill-rule: nonzero; opacity: 1;" transform=" translate(-336.3979, -193.7939)" d="M 347.033966 139.722748 C 357.740173 142.938889 365.398346 149.526901 369.994171 159.002686 C 380.964203 181.62085 380.964905 204.737015 370.428192 227.399216 C 364.267273 240.650116 353.487091 248.590256 338.293884 249.118668 C 322.636566 249.663223 311.058258 242.400177 303.070679 229.448685 C 293.749878 214.335449 293.556793 197.533844 295.506775 180.606537 C 296.642975 170.74324 299.624725 161.408752 306.140076 153.611633 C 316.809631 140.842987 330.227448 135.845291 347.033966 139.722748 z" stroke-linecap="round"/>
</g>
</g>
</g>
<g transform="matrix(2.3151 0 0 2.5152 501.5374 493.8709)" id="447953">
<g style="" vector-effect="non-scaling-stroke">
		<g transform="matrix(1 0 0 1 1 1)" id="Layer_1">
<path style="stroke: none; stroke-width: 1; stroke-dasharray: none; stroke-linecap: butt; stroke-dashoffset: 0; stroke-linejoin: miter; stroke-miterlimit: 4; is-custom-font: none; font-file-url: none; fill: rgb(255,0,0); fill-rule: nonzero; opacity: 1;" transform=" translate(-213, -181.5)" d="M 282 362 C 188.000015 362 94.500031 362 1.000038 362 C 1.000025 241.666702 1.000025 121.333412 1.000013 1.000086 C 142.333267 1.000057 283.666534 1.000057 424.999878 1.000029 C 424.999908 121.333252 424.999908 241.666504 424.999939 361.999878 C 377.5 362 330 362 282 362 M 27.37431 282.936401 C 36.070271 282.874512 41.84922 278.42334 45.024879 270.638672 C 50.797272 256.488525 56.551334 242.321976 61.822571 227.981979 C 63.326183 223.891464 65.323036 222.953659 69.331909 222.978302 C 96.156258 223.143112 122.982101 223.063934 149.807465 223.063934 C 158.784668 223.063934 158.648117 223.119049 162.114258 231.708771 C 167.460434 244.95752 172.579163 258.325745 178.618896 271.25824 C 183.498184 281.705902 194.412308 285.485657 205.248276 281.724976 C 215.594513 278.134247 222.291656 267.597076 220.062546 257.052246 C 218.594498 250.107635 216.301865 243.256119 213.648773 236.65625 C 194.489944 188.99646 175.187332 141.394272 155.829208 93.814964 C 150.948883 81.819908 146.218353 69.718575 140.484802 58.128227 C 134.228668 45.481525 123.098061 40.421051 109.182358 40.990208 C 96.067924 41.526585 86.98243 48.093136 81.145515 59.519547 C 79.258461 63.213676 77.543175 67.014076 76.019928 70.872696 C 58.07412 116.332199 40.129154 161.792206 22.299904 207.297485 C 16.239422 222.765564 9.757825 238.129074 4.833891 253.964844 C 0.030097 269.414246 10.349958 282.35257 27.37431 282.936401 M 287.388794 113.189781 C 281.32193 105.903595 273.526489 104.422852 264.845581 106.911385 C 256.383057 109.337318 252.905579 115.895477 251.82106 124.052238 C 251.448746 126.852432 251.195358 129.692413 251.193817 132.514389 C 251.159851 194.339645 251.119278 256.165039 251.25415 317.98999 C 251.266388 323.602478 252.152878 329.270325 253.198349 334.805756 C 254.085983 339.505463 256.545959 343.50351 261.122894 345.731171 C 273.995819 351.99646 287.77066 345.462067 291.035339 331.484222 C 291.59967 329.067963 292.071594 326.567841 292.105316 324.099884 C 292.351288 306.106354 292.48349 288.111237 292.630005 270.116455 C 292.670044 265.200134 292.636108 260.283173 292.636108 254.251663 C 295.737274 257.530914 298.028595 259.839783 300.194183 262.261108 C 328.211914 293.586914 375.434937 286.485107 398.159546 261.669006 C 411.385956 247.225281 418.055054 229.91832 420.418701 210.856277 C 423.566193 185.473053 421.163605 160.922272 407.177948 138.66687 C 384.714355 102.920616 336.85907 95.165382 305.285187 122.131813 C 301.041687 125.756073 297.309937 129.979523 293.988464 133.281952 C 291.965454 126.839729 289.910889 120.297089 287.388794 113.189781 z" stroke-linecap="round"/>
</g>
		<g transform="matrix(1 0 0 1 -99.9289 -18.4536)" id="Layer_1">
<path style="stroke: none; stroke-width: 1; stroke-dasharray: none; stroke-linecap: butt; stroke-dashoffset: 0; stroke-linejoin: miter; stroke-miterlimit: 4; is-custom-font: none; font-file-url: none; fill: rgb(255,253,253); fill-rule: nonzero; opacity: 1;" transform=" translate(-112.0711, -162.0464)" d="M 26.935759 282.957214 C 10.349958 282.35257 0.030097 269.414246 4.833891 253.964844 C 9.757825 238.129074 16.239422 222.765564 22.299904 207.297485 C 40.129154 161.792206 58.07412 116.332199 76.019928 70.872696 C 77.543175 67.014076 79.258461 63.213676 81.145515 59.519547 C 86.98243 48.093136 96.067924 41.526585 109.182358 40.990208 C 123.098061 40.421051 134.228668 45.481525 140.484802 58.128227 C 146.218353 69.718575 150.948883 81.819908 155.829208 93.814964 C 175.187332 141.394272 194.489944 188.99646 213.648773 236.65625 C 216.301865 243.256119 218.594498 250.107635 220.062546 257.052246 C 222.291656 267.597076 215.594513 278.134247 205.248276 281.724976 C 194.412308 285.485657 183.498184 281.705902 178.618896 271.25824 C 172.579163 258.325745 167.460434 244.95752 162.114258 231.708771 C 158.648117 223.119049 158.784668 223.063934 149.807465 223.063934 C 122.982101 223.063934 96.156258 223.143112 69.331909 222.978302 C 65.323036 222.953659 63.326183 223.891464 61.822571 227.981979 C 56.551334 242.321976 50.797272 256.488525 45.024879 270.638672 C 41.84922 278.42334 36.070271 282.874512 26.935759 282.957214 M 133.322723 153.142975 C 125.939934 132.886215 118.557144 112.629448 110.816536 91.390923 C 99.111206 123.974846 87.844826 155.336868 76.482445 186.966125 C 99.867218 186.966125 122.539619 186.966125 145.708817 186.966125 C 141.594849 175.581802 137.662003 164.69873 133.322723 153.142975 z" stroke-linecap="round"/>
</g>
		<g transform="matrix(1 0 0 1 124.4024 46.458)" id="Layer_1">
<path style="stroke: none; stroke-width: 1; stroke-dasharray: none; stroke-linecap: butt; stroke-dashoffset: 0; stroke-linejoin: miter; stroke-miterlimit: 4; is-custom-font: none; font-file-url: none; fill: rgb(255,253,253); fill-rule: nonzero; opacity: 1;" transform=" translate(-336.4024, -226.958)" d="M 287.622559 113.472122 C 289.910889 120.297089 291.965454 126.839729 293.988464 133.281952 C 297.309937 129.979523 301.041687 125.756073 305.285187 122.131813 C 336.85907 95.165382 384.714355 102.920616 407.177948 138.66687 C 421.163605 160.922272 423.566193 185.473053 420.418701 210.856277 C 418.055054 229.91832 411.385956 247.225281 398.159546 261.669006 C 375.434937 286.485107 328.211914 293.586914 300.194183 262.261108 C 298.028595 259.839783 295.737274 257.530914 292.636108 254.251663 C 292.636108 260.283173 292.670044 265.200134 292.630005 270.116455 C 292.48349 288.111237 292.351288 306.106354 292.105316 324.099884 C 292.071594 326.567841 291.59967 329.067963 291.035339 331.484222 C 287.77066 345.462067 273.995819 351.99646 261.122894 345.731171 C 256.545959 343.50351 254.085983 339.505463 253.198349 334.805756 C 252.152878 329.270325 251.266388 323.602478 251.25415 317.98999 C 251.119278 256.165039 251.159851 194.339645 251.193817 132.514389 C 251.195358 129.692413 251.448746 126.852432 251.82106 124.052238 C 252.905579 115.895477 256.383057 109.337318 264.845581 106.911385 C 273.526489 104.422852 281.32193 105.903595 287.622559 113.472122 M 346.643097 139.606445 C 330.227448 135.845291 316.809631 140.842987 306.140076 153.611633 C 299.624725 161.408752 296.642975 170.74324 295.506775 180.606537 C 293.556793 197.533844 293.749878 214.335449 303.070679 229.448685 C 311.058258 242.400177 322.636566 249.663223 338.293884 249.118668 C 353.487091 248.590256 364.267273 240.650116 370.428192 227.399216 C 380.964905 204.737015 380.964203 181.62085 369.994171 159.002686 C 365.398346 149.526901 357.740173 142.938889 346.643097 139.606445 z" stroke-linecap="round"/>
</g>
		<g transform="matrix(1 0 0 1 -100.9044 -41.3215)" id="Layer_1">
<path style="stroke: none; stroke-width: 1; stroke-dasharray: none; stroke-linecap: butt; stroke-dashoffset: 0; stroke-linejoin: miter; stroke-miterlimit: 4; is-custom-font: none; font-file-url: none; fill: rgb(255,1,1); fill-rule: nonzero; opacity: 1;" transform=" translate(-111.0956, -139.1785)" d="M 133.52594 153.479309 C 137.662003 164.69873 141.594849 175.581802 145.708817 186.966125 C 122.539619 186.966125 99.867218 186.966125 76.482445 186.966125 C 87.844826 155.336868 99.111206 123.974846 110.816536 91.390923 C 118.557144 112.629448 125.939934 132.886215 133.52594 153.479309 z" stroke-linecap="round"/>
</g>
		<g transform="matrix(1 0 0 1 124.3979 13.2939)" id="Layer_1">
<path style="stroke: none; stroke-width: 1; stroke-dasharray: none; stroke-linecap: butt; stroke-dashoffset: 0; stroke-linejoin: miter; stroke-miterlimit: 4; is-custom-font: none; font-file-url: none; fill: rgb(255,1,1); fill-rule: nonzero; opacity: 1;" transform=" translate(-336.3979, -193.7939)" d="M 347.033966 139.722748 C 357.740173 142.938889 365.398346 149.526901 369.994171 159.002686 C 380.964203 181.62085 380.964905 204.737015 370.428192 227.399216 C 364.267273 240.650116 353.487091 248.590256 338.293884 249.118668 C 322.636566 249.663223 311.058258 242.400177 303.070679 229.448685 C 293.749878 214.335449 293.556793 197.533844 295.506775 180.606537 C 296.642975 170.74324 299.624725 161.408752 306.140076 153.611633 C 316.809631 140.842987 330.227448 135.845291 347.033966 139.722748 z" stroke-linecap="round"/>
</g>
</g>
</g>
</svg>